<svg width="272" height="34" viewBox="0 0 272 34" fill="none" xmlns="http://www.w3.org/2000/svg">
<path d="M55.9566 1.43701H51.4448L42.5709 24.7685L42.4961 24.9804H45.7615L48.0298 19.0353H59.3092L61.5775 24.9804H64.8803L55.9939 1.53672L55.9566 1.43701ZM49.0144 16.3931L53.6758 4.1291L58.3121 16.3931H49.0144Z" fill="white"/>
<path d="M70.1832 11.196V7.20774H67.1172V24.993H70.2206V18.4123C70.2206 14.8104 70.8188 12.6418 72.1399 11.358C73.1121 10.4108 74.483 9.98708 76.3152 10.0494H77.2375V6.9834H76.4523C73.5732 6.9834 71.4171 8.44161 70.1832 11.221V11.196Z" fill="white"/>
<path d="M92.5796 18.125C92.2181 21.2409 90.2489 22.9484 87.0458 22.9484C83.1822 22.9484 81.3002 20.7049 81.3002 16.081C81.3002 11.4571 83.2196 9.2137 87.158 9.2137C90.1617 9.2137 91.9813 10.7841 92.4175 13.7628L92.4425 13.8999H95.3589V13.7379C95.0348 9.22616 92.0187 6.64624 87.0583 6.64624C81.6616 6.64624 78.1719 10.3603 78.1719 16.0935C78.1719 21.8267 81.5744 25.5407 87.0583 25.5407C91.9938 25.5407 95.334 22.6492 95.5583 18.1624V18.0004H92.6045V18.1375L92.5796 18.125Z" fill="white"/>
<path d="M107.962 6.63398C104.883 6.63398 102.702 8.12958 101.443 11.0834V0.215332H98.3398V24.9801H101.443V18.1501C101.443 12.2674 103.388 9.28868 107.226 9.28868C110.018 9.28868 111.264 10.7344 111.264 13.9874V24.9676H114.368V13.6633C114.368 8.92724 112.274 6.62151 107.962 6.62151V6.63398Z" fill="white"/>
<path d="M134.171 16.7413C134.246 16.3051 134.246 15.9437 134.246 15.495C134.246 10.1108 130.968 6.646 125.883 6.646C120.436 6.646 117.059 10.2479 117.059 16.0559C117.059 21.8638 120.361 25.5405 125.883 25.5405C132.875 25.5405 134.021 20.8917 134.208 19.4708L134.233 19.2963H131.379L131.354 19.421C130.768 21.8638 128.961 23.1101 125.982 23.1101C122.281 23.1101 120.361 21.0786 120.137 16.8909H134.146L134.171 16.7663V16.7413ZM120.212 14.4605C120.598 10.8337 122.468 9.07636 125.908 9.07636C129.347 9.07636 131.018 10.8835 131.192 14.4605H120.212Z" fill="white"/>
<path d="M141.226 3.3191H139.457L138.397 6.98334L134.882 7.83085L134.758 7.85578V9.71282H138.11V20.7305C138.11 23.3478 138.833 24.968 142.46 24.968H146.735V22.3881H141.214V9.70036H146.972V7.18275H141.214V3.30664L141.226 3.3191Z" fill="white"/>
<path d="M159.524 6.63398C156.446 6.63398 154.265 8.12958 153.006 11.0834V0.215332H149.902V24.9801H153.006V18.1501C153.006 12.2674 154.95 9.28868 158.789 9.28868C161.581 9.28868 162.827 10.7344 162.827 13.9874V24.9676H165.93V13.6633C165.93 8.92724 163.836 6.62151 159.524 6.62151V6.63398Z" fill="white"/>
<path d="M172.775 7.19482H169.672V24.9801H172.775V7.19482Z" fill="white"/>
<path d="M190.043 17.9877V18.1248C189.656 21.2406 187.7 22.9481 184.484 22.9481C180.62 22.9481 178.738 20.7047 178.738 16.0808C178.738 11.4569 180.658 9.21346 184.596 9.21346C187.6 9.21346 189.42 10.7838 189.856 13.7626L189.881 13.8997H192.797V13.7377C192.473 9.22592 189.457 6.646 184.484 6.646C179.087 6.646 175.598 10.3601 175.598 16.0932C175.598 21.8264 179 25.5405 184.484 25.5405C189.42 25.5405 192.76 22.649 192.984 18.1622V18.0001H190.03L190.043 17.9877Z" fill="white"/>
<path d="M15.1056 1.43622L0.872437 15.6196C0.311585 16.1804 0 16.9407 0 17.7383V21.6643C0 22.462 0.311585 23.2222 0.872437 23.7831L3.0286 25.9268C3.72655 26.6247 4.89811 26.4627 5.38418 25.6027L18.0968 3.23095C18.6577 2.23388 17.9473 1 16.8006 1H16.165C15.7662 1 15.3923 1.16202 15.1056 1.43622Z" fill="white"/>
<path d="M37.8464 15.6196L23.6132 1.43622C23.339 1.16202 22.9527 1 22.5663 1H21.9307C20.784 1 20.0611 2.23388 20.6345 3.23095L33.3471 25.6027C33.8332 26.4627 35.0047 26.6123 35.7027 25.9268L37.8589 23.7831C38.4197 23.2222 38.7313 22.462 38.7313 21.6643V17.7383C38.7313 16.9407 38.4197 16.1804 37.8589 15.6196H37.8464Z" fill="white"/>
<path d="M10.2459 33.1178C10.8068 33.6786 11.567 33.9902 12.3522 33.9902H26.3611C27.1463 33.9902 27.9065 33.6786 28.4674 33.1178L31.7328 29.8648C32.68 28.9301 32.007 27.3098 30.6734 27.3098H8.0399C6.70632 27.3098 6.04576 28.9176 6.98051 29.8648L10.2459 33.1178Z" fill="white"/>
<path d="M4.41406 27.3104H4.42634L4.41406 27.2981V27.3104Z" fill="white"/>
<path d="M201.632 9.04H209.48C211.08 9.04 212.24 9.4 212.96 10.12C213.696 10.84 214.064 11.8 214.064 13C214.064 14.088 213.784 14.944 213.224 15.568C212.664 16.192 211.944 16.584 211.064 16.744C212.008 16.856 212.784 17.248 213.392 17.92C214.016 18.592 214.328 19.52 214.328 20.704C214.328 22.048 213.912 23.104 213.08 23.872C212.264 24.624 211.048 25 209.432 25H201.632V9.04ZM209.24 23.392C211.24 23.392 212.24 22.424 212.24 20.488C212.24 18.488 211.112 17.488 208.856 17.488H203.624V23.392H209.24ZM208.808 15.976C209.912 15.976 210.712 15.752 211.208 15.304C211.72 14.856 211.976 14.184 211.976 13.288C211.976 12.36 211.76 11.688 211.328 11.272C210.912 10.856 210.16 10.648 209.072 10.648H203.624V15.976H208.808ZM217.08 13H218.976V16.192C219.36 15.136 219.912 14.312 220.632 13.72C221.368 13.128 222.288 12.832 223.392 12.832H223.824V14.728H223.296C221.648 14.68 220.52 15.168 219.912 16.192C219.304 17.2 219 18.664 219 20.584V25H217.08V13ZM225.865 13H227.785V25H225.865V13ZM225.577 9.04H228.049V11.032H225.577V9.04ZM235.728 12.616C236.816 12.616 237.736 12.848 238.488 13.312C239.256 13.76 239.848 14.416 240.264 15.28V8.2H242.184V25H240.264V22.696C239.848 23.56 239.256 24.224 238.488 24.688C237.736 25.152 236.816 25.384 235.728 25.384C233.92 25.384 232.552 24.8 231.624 23.632C230.696 22.464 230.232 20.92 230.232 19C230.232 17.064 230.696 15.52 231.624 14.368C232.552 13.2 233.92 12.616 235.728 12.616ZM232.176 19C232.176 20.632 232.488 21.848 233.112 22.648C233.752 23.432 234.752 23.824 236.112 23.824C237.424 23.824 238.44 23.432 239.16 22.648C239.896 21.864 240.264 20.648 240.264 19C240.264 17.352 239.896 16.136 239.16 15.352C238.44 14.568 237.424 14.176 236.112 14.176C234.752 14.176 233.752 14.576 233.112 15.376C232.488 16.16 232.176 17.368 232.176 19ZM250.81 30.064C249.034 30.064 247.666 29.688 246.706 28.936C245.746 28.2 245.21 27.144 245.098 25.768H246.994C247.17 27.624 248.442 28.552 250.81 28.552C252.234 28.552 253.258 28.28 253.882 27.736C254.506 27.192 254.818 26.28 254.818 25V22.384C254.018 23.952 252.53 24.736 250.354 24.736C248.514 24.736 247.13 24.208 246.202 23.152C245.274 22.08 244.81 20.592 244.81 18.688C244.81 16.8 245.274 15.328 246.202 14.272C247.13 13.2 248.514 12.664 250.354 12.664C251.426 12.664 252.338 12.872 253.09 13.288C253.842 13.704 254.418 14.312 254.818 15.112V13H256.738V25.024C256.738 26.688 256.274 27.944 255.346 28.792C254.434 29.64 252.922 30.064 250.81 30.064ZM246.754 18.688C246.754 20.288 247.074 21.448 247.714 22.168C248.37 22.872 249.394 23.224 250.786 23.224C252.114 23.224 253.114 22.864 253.786 22.144C254.474 21.424 254.818 20.272 254.818 18.688C254.818 17.12 254.474 15.976 253.786 15.256C253.114 14.536 252.114 14.176 250.786 14.176C249.394 14.176 248.37 14.528 247.714 15.232C247.074 15.936 246.754 17.088 246.754 18.688ZM265.011 25.384C263.043 25.384 261.555 24.8 260.547 23.632C259.555 22.448 259.059 20.896 259.059 18.976C259.059 17.76 259.283 16.672 259.731 15.712C260.179 14.752 260.851 14 261.747 13.456C262.643 12.896 263.731 12.616 265.011 12.616C266.179 12.616 267.187 12.872 268.035 13.384C268.899 13.88 269.547 14.584 269.979 15.496C270.427 16.392 270.651 17.424 270.651 18.592C270.651 18.96 270.635 19.24 270.603 19.432H260.955C261.019 21.016 261.403 22.16 262.107 22.864C262.827 23.568 263.819 23.92 265.083 23.92C267.195 23.92 268.459 23.048 268.875 21.304H270.627C270.483 22.408 269.963 23.368 269.067 24.184C268.171 24.984 266.819 25.384 265.011 25.384ZM268.779 17.992C268.683 15.384 267.435 14.08 265.035 14.08C263.851 14.08 262.915 14.392 262.227 15.016C261.539 15.64 261.131 16.632 261.003 17.992H268.779Z" fill="white"/>
</svg>
