<svg width="500" height="500" viewBox="0 0 500 500" fill="none" xmlns="http://www.w3.org/2000/svg">
<g id="Archethic Logo alone - Gradient">
<path id="Path" d="M128.629 69.0513C133.927 67.9785 150.334 64.8587 171.241 65.0717C205.524 65.4214 232.081 74.5154 248.355 80.2346C267.163 86.8442 308.844 103.632 351 141.352C366.909 155.587 378.77 169.122 386.835 179.163C390.597 171.455 393.831 163.548 396.458 155.628C399.912 145.217 402.458 134.454 404.025 123.642L406.504 106.544C396.463 96.5847 382.966 84.2974 365.982 71.633C357.903 65.6085 332.193 46.9398 299.303 31.8842C273.222 19.9457 212.544 -7.8301 134.51 2.10788C76.5944 9.48374 35.8827 34.2264 26.4814 40.1382C19.6255 44.4488 12.9762 49.0846 6.71598 53.9191L2.40915 57.2446L1.76867 62.7523C0.839293 70.7391 0.268987 78.9952 0.0724148 87.2862C-0.568048 114.575 2.73989 156.759 22.1384 202.742C27.7376 216.018 34.4516 229.07 42.0943 241.537C44.2116 244.99 48.4562 251.626 54.756 260.163C54.1061 255.331 53.5402 250.496 53.0696 245.728C50.3129 217.838 50.3319 189.355 53.1228 161.072C55.4323 137.671 59.2717 118.876 62.0272 107.01C63.2796 101.619 64.4401 97.1057 65.315 93.8235C72.7874 89.2895 82.2578 84.213 93.6045 79.6055C100.573 76.7752 112.796 72.2584 128.629 69.0513Z" fill="url(#paint0_linear_0_31)"/>
<path id="Path_2" d="M310.53 402.246C289.376 411.941 271.376 417.945 259.844 421.438C254.604 423.026 250.161 424.254 246.914 425.118C239.246 420.689 230.099 414.738 220.398 406.868C214.441 402.033 204.373 393.329 193.588 380.725C189.98 376.507 178.979 363.344 168.536 344.463C151.414 313.505 145.683 285.084 142.297 267.596C138.383 247.383 131.536 201.512 142.321 144.689C146.392 123.246 151.921 105.788 156.397 93.4959C147.903 93.9941 139.509 95.0677 131.411 96.6916C120.766 98.8267 110.283 101.953 100.254 105.984L84.3951 112.356C80.9941 126.381 77.361 144.681 75.178 166.3C74.1396 176.585 71.2641 209.059 75.1229 246.164C78.1824 275.587 85.3006 344.041 133.44 409.112C169.169 457.407 210.984 481.52 220.809 486.988C227.973 490.976 235.311 494.615 242.62 497.805L247.648 500L252.676 497.805C259.968 494.622 267.307 490.983 274.486 486.99C298.112 473.841 332.45 449.656 361.855 409.111C370.346 397.406 378.079 384.813 384.839 371.681C386.712 368.043 390.221 360.894 394.309 350.944C390.514 353.957 386.673 356.898 382.84 359.718C360.428 376.219 336.098 390.527 310.53 402.246Z" fill="url(#paint1_linear_0_31)"/>
<path id="Path_3" d="M499.937 87.2738C499.743 78.972 499.174 70.6909 498.244 62.6597L497.604 57.1343L493.301 53.7981C487.061 48.9596 480.417 44.3077 473.557 39.9722C450.973 25.7103 413.915 7.51268 365.631 1.82113C351.692 0.176425 337.383 -0.358039 323.103 0.233143C319.146 0.397436 311.457 0.870421 301.145 2.22961C305.524 4.07124 309.866 5.98969 314.102 7.96062C338.888 19.4812 362.784 33.7853 385.128 50.4722C403.616 64.2786 417.472 77.1452 426.055 85.5648C429.955 89.3908 433.163 92.6942 435.48 95.124C435.554 104.091 435.084 115.118 433.284 127.592C432.178 135.252 429.863 148.465 424.646 164.253C422.9 169.537 417.323 185.795 406.701 204.413C389.283 234.941 368.385 254.163 355.456 265.869C340.514 279.398 305.603 308.307 252.887 327.139C232.993 334.247 215.708 338.081 203.252 340.267C207.842 347.503 212.863 354.365 218.198 360.691C225.212 369.006 232.973 376.685 241.265 383.512L254.377 394.309C267.752 390.312 284.807 384.387 303.919 375.53C313.012 371.316 341.522 357.655 370.588 335.751C393.636 318.382 447.257 277.971 477.895 203.1C500.634 147.531 500.203 98.6593 499.937 87.2738Z" fill="url(#paint2_linear_0_31)"/>
</g>
<defs>
<linearGradient id="paint0_linear_0_31" x1="70.4043" y1="279.475" x2="276.948" y2="58.007" gradientUnits="userSpaceOnUse">
<stop stop-color="#00A4DB"/>
<stop offset="1" stop-color="#CC00FF"/>
</linearGradient>
<linearGradient id="paint1_linear_0_31" x1="128.79" y1="530.176" x2="399.885" y2="383.206" gradientUnits="userSpaceOnUse">
<stop stop-color="#00A4DB"/>
<stop offset="1" stop-color="#CC00FF"/>
</linearGradient>
<linearGradient id="paint2_linear_0_31" x1="254.647" y1="423.58" x2="510.528" y2="291.429" gradientUnits="userSpaceOnUse">
<stop stop-color="#00A4DB"/>
<stop offset="1" stop-color="#CC00FF"/>
</linearGradient>
</defs>
</svg>
