<svg width="293" height="46" viewBox="0 0 293 46" fill="none" xmlns="http://www.w3.org/2000/svg">
<g id="Archethic Bridge">
<g id="Label">
<g id="BRIdGE">
<g id="Shape">
<path fill-rule="evenodd" clip-rule="evenodd" d="M133.908 44.4652C132.88 45.4884 131.634 46 130.171 46H122.332C122.001 46 121.722 45.8839 121.495 45.6518C121.26 45.4282 121.143 45.1531 121.143 44.8263V28.6658C121.143 28.3477 121.26 28.0725 121.495 27.8404C121.722 27.6082 122.001 27.4921 122.332 27.4921H128.812C130.267 27.4921 131.513 28.0037 132.549 29.0269C133.577 30.0415 134.091 31.2668 134.091 32.7027C134.091 34.0526 133.634 35.222 132.719 36.2108C133.546 36.6665 134.208 37.2942 134.705 38.0938C135.21 38.9193 135.463 39.8178 135.463 40.7894C135.463 42.2253 134.944 43.4506 133.908 44.4652ZM123.534 29.8524H128.812C129.614 29.8524 130.297 30.1318 130.864 30.6907C131.43 31.2496 131.713 31.9203 131.713 32.7027C131.713 33.4937 131.43 34.1687 130.864 34.7276C130.297 35.2865 129.614 35.5659 128.812 35.5659H123.534V29.8524ZM123.534 37.9262H130.171C130.972 37.9262 131.656 38.2056 132.222 38.7645C132.789 39.3234 133.072 39.9984 133.072 40.7894C133.072 41.5719 132.789 42.2425 132.222 42.8014C131.656 43.3603 130.972 43.6398 130.171 43.6398H123.534V37.9262Z" fill="#00A4DB"/>
<path fill-rule="evenodd" clip-rule="evenodd" d="M133.908 44.4652C132.88 45.4884 131.634 46 130.171 46H122.332C122.001 46 121.722 45.8839 121.495 45.6518C121.26 45.4282 121.143 45.1531 121.143 44.8263V28.6658C121.143 28.3477 121.26 28.0725 121.495 27.8404C121.722 27.6082 122.001 27.4921 122.332 27.4921H128.812C130.267 27.4921 131.513 28.0037 132.549 29.0269C133.577 30.0415 134.091 31.2668 134.091 32.7027C134.091 34.0526 133.634 35.222 132.719 36.2108C133.546 36.6665 134.208 37.2942 134.705 38.0938C135.21 38.9193 135.463 39.8178 135.463 40.7894C135.463 42.2253 134.944 43.4506 133.908 44.4652ZM123.534 29.8524H128.812C129.614 29.8524 130.297 30.1318 130.864 30.6907C131.43 31.2496 131.713 31.9203 131.713 32.7027C131.713 33.4937 131.43 34.1687 130.864 34.7276C130.297 35.2865 129.614 35.5659 128.812 35.5659H123.534V29.8524ZM123.534 37.9262H130.171C130.972 37.9262 131.656 38.2056 132.222 38.7645C132.789 39.3234 133.072 39.9984 133.072 40.7894C133.072 41.5719 132.789 42.2425 132.222 42.8014C131.656 43.3603 130.972 43.6398 130.171 43.6398H123.534V37.9262Z" fill="url(#paint0_linear_0_101)"/>
</g>
<g id="Path">
<path d="M155.941 46C156.272 46 156.555 45.8839 156.79 45.6518C157.025 45.4282 157.143 45.1531 157.143 44.8263V39.5642H160.814L166.472 45.626C166.707 45.8753 166.999 46 167.347 46C167.661 46 167.931 45.8968 168.157 45.6904C168.401 45.4669 168.532 45.1917 168.549 44.865C168.558 44.5469 168.449 44.2674 168.222 44.0267L163.858 39.3449C165.165 38.9924 166.236 38.283 167.073 37.2168C167.926 36.1334 168.353 34.9039 168.353 33.5281C168.353 31.8687 167.756 30.4456 166.563 29.2591C165.37 28.0811 163.928 27.4921 162.238 27.4921H155.941C155.61 27.4921 155.331 27.6082 155.104 27.8404C154.869 28.0725 154.752 28.3477 154.752 28.6658C154.752 28.9925 154.869 29.272 155.104 29.5041C155.331 29.7363 155.61 29.8524 155.941 29.8524H162.238C163.266 29.8524 164.146 30.2092 164.878 30.9229C165.601 31.6451 165.962 32.5135 165.962 33.5281C165.962 34.5427 165.601 35.4112 164.878 36.1334C164.146 36.8471 163.266 37.2039 162.238 37.2039H155.941C155.61 37.2039 155.331 37.32 155.104 37.5521C154.869 37.7843 154.752 38.0637 154.752 38.3905V44.8263C154.752 45.1531 154.869 45.4282 155.104 45.6518C155.331 45.8839 155.61 46 155.941 46Z" fill="#00A4DB"/>
<path d="M155.941 46C156.272 46 156.555 45.8839 156.79 45.6518C157.025 45.4282 157.143 45.1531 157.143 44.8263V39.5642H160.814L166.472 45.626C166.707 45.8753 166.999 46 167.347 46C167.661 46 167.931 45.8968 168.157 45.6904C168.401 45.4669 168.532 45.1917 168.549 44.865C168.558 44.5469 168.449 44.2674 168.222 44.0267L163.858 39.3449C165.165 38.9924 166.236 38.283 167.073 37.2168C167.926 36.1334 168.353 34.9039 168.353 33.5281C168.353 31.8687 167.756 30.4456 166.563 29.2591C165.37 28.0811 163.928 27.4921 162.238 27.4921H155.941C155.61 27.4921 155.331 27.6082 155.104 27.8404C154.869 28.0725 154.752 28.3477 154.752 28.6658C154.752 28.9925 154.869 29.272 155.104 29.5041C155.331 29.7363 155.61 29.8524 155.941 29.8524H162.238C163.266 29.8524 164.146 30.2092 164.878 30.9229C165.601 31.6451 165.962 32.5135 165.962 33.5281C165.962 34.5427 165.601 35.4112 164.878 36.1334C164.146 36.8471 163.266 37.2039 162.238 37.2039H155.941C155.61 37.2039 155.331 37.32 155.104 37.5521C154.869 37.7843 154.752 38.0637 154.752 38.3905V44.8263C154.752 45.1531 154.869 45.4282 155.104 45.6518C155.331 45.8839 155.61 46 155.941 46Z" fill="url(#paint1_linear_0_101)"/>
</g>
<g id="Path_2">
<path d="M189.04 46C189.371 46 189.654 45.8839 189.889 45.6518C190.124 45.4282 190.242 45.1531 190.242 44.8263V28.6658C190.242 28.3477 190.124 28.0725 189.889 27.8404C189.654 27.6082 189.371 27.4921 189.04 27.4921C188.709 27.4921 188.43 27.6082 188.204 27.8404C187.969 28.0725 187.851 28.3477 187.851 28.6658V44.8263C187.851 45.1531 187.969 45.4282 188.204 45.6518C188.43 45.8839 188.709 46 189.04 46Z" fill="#00A4DB"/>
<path d="M189.04 46C189.371 46 189.654 45.8839 189.889 45.6518C190.124 45.4282 190.242 45.1531 190.242 44.8263V28.6658C190.242 28.3477 190.124 28.0725 189.889 27.8404C189.654 27.6082 189.371 27.4921 189.04 27.4921C188.709 27.4921 188.43 27.6082 188.204 27.8404C187.969 28.0725 187.851 28.3477 187.851 28.6658V44.8263C187.851 45.1531 187.969 45.4282 188.204 45.6518C188.43 45.8839 188.709 46 189.04 46Z" fill="url(#paint2_linear_0_101)"/>
</g>
<g id="Shape_2">
<path fill-rule="evenodd" clip-rule="evenodd" d="M221.447 43.2915C219.618 45.0972 217.405 46 214.81 46H210.72C210.389 46 210.11 45.8839 209.884 45.6518C209.649 45.4282 209.531 45.1531 209.531 44.8263V28.6658C209.531 28.3477 209.649 28.0725 209.884 27.8404C210.11 27.6082 210.389 27.4921 210.72 27.4921H214.81C217.405 27.4921 219.618 28.3949 221.447 30.2006C223.276 32.0062 224.191 34.1902 224.191 36.7525C224.191 39.3062 223.276 41.4859 221.447 43.2915ZM214.81 29.8524H211.922V43.6398H214.81C216.743 43.6398 218.39 42.9691 219.748 41.6277C221.116 40.2778 221.8 38.6527 221.8 36.7525C221.8 34.8437 221.116 33.2186 219.748 31.8773C218.39 30.5273 216.743 29.8524 214.81 29.8524Z" fill="#00A4DB"/>
<path fill-rule="evenodd" clip-rule="evenodd" d="M221.447 43.2915C219.618 45.0972 217.405 46 214.81 46H210.72C210.389 46 210.11 45.8839 209.884 45.6518C209.649 45.4282 209.531 45.1531 209.531 44.8263V28.6658C209.531 28.3477 209.649 28.0725 209.884 27.8404C210.11 27.6082 210.389 27.4921 210.72 27.4921H214.81C217.405 27.4921 219.618 28.3949 221.447 30.2006C223.276 32.0062 224.191 34.1902 224.191 36.7525C224.191 39.3062 223.276 41.4859 221.447 43.2915ZM214.81 29.8524H211.922V43.6398H214.81C216.743 43.6398 218.39 42.9691 219.748 41.6277C221.116 40.2778 221.8 38.6527 221.8 36.7525C221.8 34.8437 221.116 33.2186 219.748 31.8773C218.39 30.5273 216.743 29.8524 214.81 29.8524Z" fill="url(#paint3_linear_0_101)"/>
</g>
<g id="Path_3">
<path d="M246.223 43.2915C248.053 45.0972 250.261 46 252.848 46C255.444 46 257.656 45.0972 259.485 43.2915C259.712 43.0594 259.825 42.7799 259.825 42.4532V36.7525C259.825 36.4258 259.712 36.1463 259.485 35.9142C259.25 35.682 258.967 35.5659 258.636 35.5659H252.508C252.186 35.5659 251.907 35.682 251.672 35.9142C251.437 36.1463 251.319 36.4258 251.319 36.7525C251.319 37.0706 251.437 37.3458 251.672 37.5779C251.907 37.8101 252.186 37.9262 252.508 37.9262H257.447V41.9502C256.071 43.1368 254.464 43.6999 252.626 43.6398C250.788 43.5796 249.216 42.9089 247.909 41.6277C246.55 40.2778 245.871 38.6527 245.871 36.7525C245.871 34.8437 246.55 33.2143 247.909 31.8644C249.277 30.523 250.923 29.8524 252.848 29.8524C254.782 29.8524 256.432 30.523 257.8 31.8644C258.026 32.0965 258.305 32.2126 258.636 32.2126C258.967 32.2126 259.25 32.0965 259.485 31.8644C259.712 31.6408 259.825 31.3657 259.825 31.0389C259.825 30.7122 259.712 30.4327 259.485 30.2006C257.656 28.3949 255.444 27.4921 252.848 27.4921C250.261 27.4921 248.053 28.3949 246.223 30.2006C244.394 32.0062 243.48 34.1902 243.48 36.7525C243.48 39.3062 244.394 41.4859 246.223 43.2915Z" fill="#00A4DB"/>
<path d="M246.223 43.2915C248.053 45.0972 250.261 46 252.848 46C255.444 46 257.656 45.0972 259.485 43.2915C259.712 43.0594 259.825 42.7799 259.825 42.4532V36.7525C259.825 36.4258 259.712 36.1463 259.485 35.9142C259.25 35.682 258.967 35.5659 258.636 35.5659H252.508C252.186 35.5659 251.907 35.682 251.672 35.9142C251.437 36.1463 251.319 36.4258 251.319 36.7525C251.319 37.0706 251.437 37.3458 251.672 37.5779C251.907 37.8101 252.186 37.9262 252.508 37.9262H257.447V41.9502C256.071 43.1368 254.464 43.6999 252.626 43.6398C250.788 43.5796 249.216 42.9089 247.909 41.6277C246.55 40.2778 245.871 38.6527 245.871 36.7525C245.871 34.8437 246.55 33.2143 247.909 31.8644C249.277 30.523 250.923 29.8524 252.848 29.8524C254.782 29.8524 256.432 30.523 257.8 31.8644C258.026 32.0965 258.305 32.2126 258.636 32.2126C258.967 32.2126 259.25 32.0965 259.485 31.8644C259.712 31.6408 259.825 31.3657 259.825 31.0389C259.825 30.7122 259.712 30.4327 259.485 30.2006C257.656 28.3949 255.444 27.4921 252.848 27.4921C250.261 27.4921 248.053 28.3949 246.223 30.2006C244.394 32.0062 243.48 34.1902 243.48 36.7525C243.48 39.3062 244.394 41.4859 246.223 43.2915Z" fill="url(#paint4_linear_0_101)"/>
</g>
<g id="Shape_3">
<path fill-rule="evenodd" clip-rule="evenodd" d="M280.303 27.4921C279.972 27.4921 279.693 27.6082 279.467 27.8404C279.231 28.0725 279.114 28.3477 279.114 28.6658C279.114 28.9925 279.231 29.272 279.467 29.5041C279.693 29.7363 279.972 29.8524 280.303 29.8524H291.552C291.883 29.8524 292.167 29.7363 292.402 29.5041C292.637 29.272 292.755 28.9925 292.755 28.6658C292.755 28.3477 292.637 28.0725 292.402 27.8404C292.167 27.6082 291.883 27.4921 291.552 27.4921H280.303ZM292.755 44.8263C292.755 44.4996 292.637 44.2201 292.402 43.988C292.167 43.7558 291.883 43.6398 291.552 43.6398H280.303C279.972 43.6398 279.693 43.7558 279.467 43.988C279.231 44.2201 279.114 44.4996 279.114 44.8263C279.114 45.1531 279.231 45.4282 279.467 45.6518C279.693 45.8839 279.972 46 280.303 46H291.552C291.883 46 292.167 45.8839 292.402 45.6518C292.637 45.4282 292.755 45.1531 292.755 44.8263ZM279.467 35.9142C279.693 35.682 279.972 35.5659 280.303 35.5659H291.552C291.883 35.5659 292.167 35.682 292.402 35.9142C292.637 36.1463 292.755 36.4258 292.755 36.7525C292.755 37.0706 292.637 37.3458 292.402 37.5779C292.167 37.8101 291.883 37.9262 291.552 37.9262H280.303C279.972 37.9262 279.693 37.8101 279.467 37.5779C279.231 37.3458 279.114 37.0706 279.114 36.7525C279.114 36.4258 279.231 36.1463 279.467 35.9142Z" fill="#00A4DB"/>
<path fill-rule="evenodd" clip-rule="evenodd" d="M280.303 27.4921C279.972 27.4921 279.693 27.6082 279.467 27.8404C279.231 28.0725 279.114 28.3477 279.114 28.6658C279.114 28.9925 279.231 29.272 279.467 29.5041C279.693 29.7363 279.972 29.8524 280.303 29.8524H291.552C291.883 29.8524 292.167 29.7363 292.402 29.5041C292.637 29.272 292.755 28.9925 292.755 28.6658C292.755 28.3477 292.637 28.0725 292.402 27.8404C292.167 27.6082 291.883 27.4921 291.552 27.4921H280.303ZM292.755 44.8263C292.755 44.4996 292.637 44.2201 292.402 43.988C292.167 43.7558 291.883 43.6398 291.552 43.6398H280.303C279.972 43.6398 279.693 43.7558 279.467 43.988C279.231 44.2201 279.114 44.4996 279.114 44.8263C279.114 45.1531 279.231 45.4282 279.467 45.6518C279.693 45.8839 279.972 46 280.303 46H291.552C291.883 46 292.167 45.8839 292.402 45.6518C292.637 45.4282 292.755 45.1531 292.755 44.8263ZM279.467 35.9142C279.693 35.682 279.972 35.5659 280.303 35.5659H291.552C291.883 35.5659 292.167 35.682 292.402 35.9142C292.637 36.1463 292.755 36.4258 292.755 36.7525C292.755 37.0706 292.637 37.3458 292.402 37.5779C292.167 37.8101 291.883 37.9262 291.552 37.9262H280.303C279.972 37.9262 279.693 37.8101 279.467 37.5779C279.231 37.3458 279.114 37.0706 279.114 36.7525C279.114 36.4258 279.231 36.1463 279.467 35.9142Z" fill="url(#paint5_linear_0_101)"/>
</g>
</g>
<g id="ARCHETHIC">
<g id="Path_4">
<path d="M138.948 20.5425C139.203 20.1499 139.237 19.7434 139.047 19.3228L131.265 1.77104C131.037 1.25701 130.64 1 130.072 1C129.513 1 129.12 1.25701 128.893 1.77104L121.11 19.3228C120.968 19.6499 120.963 19.977 121.096 20.3041C121.219 20.6313 121.446 20.8649 121.778 21.0051C121.948 21.0799 122.123 21.1172 122.303 21.1172C122.862 21.1172 123.255 20.8602 123.482 20.3462L130.072 5.47206L135.88 18.5518H128.225C127.866 18.5518 127.558 18.6779 127.302 18.9303C127.056 19.1826 126.933 19.4864 126.933 19.8415C126.933 20.1873 127.056 20.4864 127.302 20.7387C127.558 20.9911 127.866 21.1172 128.225 21.1172H137.854C138.328 21.1172 138.692 20.9256 138.948 20.5425Z" fill="#00A4DB"/>
<path d="M138.948 20.5425C139.203 20.1499 139.237 19.7434 139.047 19.3228L131.265 1.77104C131.037 1.25701 130.64 1 130.072 1C129.513 1 129.12 1.25701 128.893 1.77104L121.11 19.3228C120.968 19.6499 120.963 19.977 121.096 20.3041C121.219 20.6313 121.446 20.8649 121.778 21.0051C121.948 21.0799 122.123 21.1172 122.303 21.1172C122.862 21.1172 123.255 20.8602 123.482 20.3462L130.072 5.47206L135.88 18.5518H128.225C127.866 18.5518 127.558 18.6779 127.302 18.9303C127.056 19.1826 126.933 19.4864 126.933 19.8415C126.933 20.1873 127.056 20.4864 127.302 20.7387C127.558 20.9911 127.866 21.1172 128.225 21.1172H137.854C138.328 21.1172 138.692 20.9256 138.948 20.5425Z" fill="url(#paint6_linear_0_101)"/>
</g>
<g id="Path_5">
<path d="M145.403 21.1172C145.763 21.1172 146.071 20.9911 146.326 20.7387C146.582 20.4957 146.71 20.1967 146.71 19.8415V14.1218H150.7L156.85 20.7107C157.105 20.9817 157.423 21.1172 157.801 21.1172C158.142 21.1172 158.436 21.0051 158.682 20.7808C158.947 20.5378 159.089 20.2387 159.108 19.8836C159.117 19.5378 158.999 19.234 158.753 18.9723L154.009 13.8834C155.43 13.5003 156.594 12.7292 157.503 11.5703C158.431 10.3927 158.895 9.05624 158.895 7.56088C158.895 5.75711 158.246 4.21035 156.949 2.9206C155.652 1.6402 154.085 1 152.248 1H145.403C145.043 1 144.74 1.12617 144.494 1.37851C144.239 1.63085 144.111 1.92993 144.111 2.27573C144.111 2.63087 144.239 2.93462 144.494 3.18696C144.74 3.4393 145.043 3.56547 145.403 3.56547H152.248C153.366 3.56547 154.322 3.95333 155.117 4.72905C155.903 5.51411 156.296 6.45806 156.296 7.56088C156.296 8.66371 155.903 9.60766 155.117 10.3927C154.322 11.1684 153.366 11.5563 152.248 11.5563H145.403C145.043 11.5563 144.74 11.6825 144.494 11.9348C144.239 12.1871 144.111 12.4909 144.111 12.846V19.8415C144.111 20.1967 144.239 20.4957 144.494 20.7387C144.74 20.9911 145.043 21.1172 145.403 21.1172Z" fill="#00A4DB"/>
<path d="M145.403 21.1172C145.763 21.1172 146.071 20.9911 146.326 20.7387C146.582 20.4957 146.71 20.1967 146.71 19.8415V14.1218H150.7L156.85 20.7107C157.105 20.9817 157.423 21.1172 157.801 21.1172C158.142 21.1172 158.436 21.0051 158.682 20.7808C158.947 20.5378 159.089 20.2387 159.108 19.8836C159.117 19.5378 158.999 19.234 158.753 18.9723L154.009 13.8834C155.43 13.5003 156.594 12.7292 157.503 11.5703C158.431 10.3927 158.895 9.05624 158.895 7.56088C158.895 5.75711 158.246 4.21035 156.949 2.9206C155.652 1.6402 154.085 1 152.248 1H145.403C145.043 1 144.74 1.12617 144.494 1.37851C144.239 1.63085 144.111 1.92993 144.111 2.27573C144.111 2.63087 144.239 2.93462 144.494 3.18696C144.74 3.4393 145.043 3.56547 145.403 3.56547H152.248C153.366 3.56547 154.322 3.95333 155.117 4.72905C155.903 5.51411 156.296 6.45806 156.296 7.56088C156.296 8.66371 155.903 9.60766 155.117 10.3927C154.322 11.1684 153.366 11.5563 152.248 11.5563H145.403C145.043 11.5563 144.74 11.6825 144.494 11.9348C144.239 12.1871 144.111 12.4909 144.111 12.846V19.8415C144.111 20.1967 144.239 20.4957 144.494 20.7387C144.74 20.9911 145.043 21.1172 145.403 21.1172Z" fill="url(#paint7_linear_0_101)"/>
</g>
<g id="Path_6">
<path d="M174.084 21.1172C176.906 21.1172 179.311 20.1359 181.299 18.1733C181.555 17.9209 181.682 17.6172 181.682 17.262C181.682 16.9069 181.555 16.6078 181.299 16.3648C181.043 16.1125 180.736 15.9863 180.376 15.9863C180.016 15.9863 179.713 16.1125 179.467 16.3648C177.98 17.8228 176.186 18.5518 174.084 18.5518C171.992 18.5518 170.202 17.8228 168.716 16.3648C167.239 14.8975 166.501 13.1311 166.501 11.0656C166.501 8.99082 167.239 7.21976 168.716 5.75244C170.202 4.29446 171.992 3.56547 174.084 3.56547C176.186 3.56547 177.98 4.29446 179.467 5.75244C179.713 6.00478 180.016 6.13095 180.376 6.13095C180.736 6.13095 181.043 6.00478 181.299 5.75244C181.555 5.50944 181.682 5.21037 181.682 4.85522C181.682 4.50007 181.555 4.19633 181.299 3.94399C179.311 1.98133 176.906 1 174.084 1C171.272 1 168.872 1.98133 166.884 3.94399C164.896 5.90664 163.902 8.28053 163.902 11.0656C163.902 13.8414 164.896 16.2106 166.884 18.1733C168.872 20.1359 171.272 21.1172 174.084 21.1172Z" fill="#00A4DB"/>
<path d="M174.084 21.1172C176.906 21.1172 179.311 20.1359 181.299 18.1733C181.555 17.9209 181.682 17.6172 181.682 17.262C181.682 16.9069 181.555 16.6078 181.299 16.3648C181.043 16.1125 180.736 15.9863 180.376 15.9863C180.016 15.9863 179.713 16.1125 179.467 16.3648C177.98 17.8228 176.186 18.5518 174.084 18.5518C171.992 18.5518 170.202 17.8228 168.716 16.3648C167.239 14.8975 166.501 13.1311 166.501 11.0656C166.501 8.99082 167.239 7.21976 168.716 5.75244C170.202 4.29446 171.992 3.56547 174.084 3.56547C176.186 3.56547 177.98 4.29446 179.467 5.75244C179.713 6.00478 180.016 6.13095 180.376 6.13095C180.736 6.13095 181.043 6.00478 181.299 5.75244C181.555 5.50944 181.682 5.21037 181.682 4.85522C181.682 4.50007 181.555 4.19633 181.299 3.94399C179.311 1.98133 176.906 1 174.084 1C171.272 1 168.872 1.98133 166.884 3.94399C164.896 5.90664 163.902 8.28053 163.902 11.0656C163.902 13.8414 164.896 16.2106 166.884 18.1733C168.872 20.1359 171.272 21.1172 174.084 21.1172Z" fill="url(#paint8_linear_0_101)"/>
</g>
<g id="Path_7">
<path d="M187.754 21.1172C188.114 21.1172 188.422 20.9911 188.677 20.7387C188.933 20.4957 189.061 20.1967 189.061 19.8415V12.3414H199.428V19.8415C199.428 20.1967 199.556 20.4957 199.812 20.7387C200.067 20.9911 200.37 21.1172 200.721 21.1172C201.08 21.1172 201.388 20.9911 201.644 20.7387C201.899 20.4957 202.027 20.1967 202.027 19.8415V2.27573C202.027 1.92993 201.899 1.63085 201.644 1.37851C201.388 1.12617 201.08 1 200.721 1C200.37 1 200.067 1.12617 199.812 1.37851C199.556 1.63085 199.428 1.92993 199.428 2.27573V9.77588H189.061V2.27573C189.061 1.92993 188.933 1.63085 188.677 1.37851C188.422 1.12617 188.114 1 187.754 1C187.394 1 187.091 1.12617 186.845 1.37851C186.59 1.63085 186.462 1.92993 186.462 2.27573V19.8415C186.462 20.1967 186.59 20.4957 186.845 20.7387C187.091 20.9911 187.394 21.1172 187.754 21.1172Z" fill="#00A4DB"/>
<path d="M187.754 21.1172C188.114 21.1172 188.422 20.9911 188.677 20.7387C188.933 20.4957 189.061 20.1967 189.061 19.8415V12.3414H199.428V19.8415C199.428 20.1967 199.556 20.4957 199.812 20.7387C200.067 20.9911 200.37 21.1172 200.721 21.1172C201.08 21.1172 201.388 20.9911 201.644 20.7387C201.899 20.4957 202.027 20.1967 202.027 19.8415V2.27573C202.027 1.92993 201.899 1.63085 201.644 1.37851C201.388 1.12617 201.08 1 200.721 1C200.37 1 200.067 1.12617 199.812 1.37851C199.556 1.63085 199.428 1.92993 199.428 2.27573V9.77588H189.061V2.27573C189.061 1.92993 188.933 1.63085 188.677 1.37851C188.422 1.12617 188.114 1 187.754 1C187.394 1 187.091 1.12617 186.845 1.37851C186.59 1.63085 186.462 1.92993 186.462 2.27573V19.8415C186.462 20.1967 186.59 20.4957 186.845 20.7387C187.091 20.9911 187.394 21.1172 187.754 21.1172Z" fill="url(#paint9_linear_0_101)"/>
</g>
<g id="Shape_4">
<path fill-rule="evenodd" clip-rule="evenodd" d="M208.099 1C207.739 1 207.436 1.12617 207.19 1.37851C206.934 1.63085 206.807 1.92993 206.807 2.27573C206.807 2.63087 206.934 2.93462 207.19 3.18696C207.436 3.4393 207.739 3.56547 208.099 3.56547H220.327C220.687 3.56547 220.994 3.4393 221.25 3.18696C221.506 2.93462 221.633 2.63087 221.633 2.27573C221.633 1.92993 221.506 1.63085 221.25 1.37851C220.994 1.12617 220.687 1 220.327 1H208.099ZM221.633 19.8415C221.633 19.4864 221.506 19.1826 221.25 18.9303C220.994 18.6779 220.687 18.5518 220.327 18.5518H208.099C207.739 18.5518 207.436 18.6779 207.19 18.9303C206.934 19.1826 206.807 19.4864 206.807 19.8415C206.807 20.1967 206.934 20.4957 207.19 20.7387C207.436 20.9911 207.739 21.1172 208.099 21.1172H220.327C220.687 21.1172 220.994 20.9911 221.25 20.7387C221.506 20.4957 221.633 20.1967 221.633 19.8415ZM207.19 10.1544C207.436 9.90205 207.739 9.77588 208.099 9.77588H220.327C220.687 9.77588 220.994 9.90205 221.25 10.1544C221.506 10.4067 221.633 10.7105 221.633 11.0656C221.633 11.4114 221.506 11.7105 221.25 11.9628C220.994 12.2152 220.687 12.3414 220.327 12.3414H208.099C207.739 12.3414 207.436 12.2152 207.19 11.9628C206.934 11.7105 206.807 11.4114 206.807 11.0656C206.807 10.7105 206.934 10.4067 207.19 10.1544Z" fill="#00A4DB"/>
<path fill-rule="evenodd" clip-rule="evenodd" d="M208.099 1C207.739 1 207.436 1.12617 207.19 1.37851C206.934 1.63085 206.807 1.92993 206.807 2.27573C206.807 2.63087 206.934 2.93462 207.19 3.18696C207.436 3.4393 207.739 3.56547 208.099 3.56547H220.327C220.687 3.56547 220.994 3.4393 221.25 3.18696C221.506 2.93462 221.633 2.63087 221.633 2.27573C221.633 1.92993 221.506 1.63085 221.25 1.37851C220.994 1.12617 220.687 1 220.327 1H208.099ZM221.633 19.8415C221.633 19.4864 221.506 19.1826 221.25 18.9303C220.994 18.6779 220.687 18.5518 220.327 18.5518H208.099C207.739 18.5518 207.436 18.6779 207.19 18.9303C206.934 19.1826 206.807 19.4864 206.807 19.8415C206.807 20.1967 206.934 20.4957 207.19 20.7387C207.436 20.9911 207.739 21.1172 208.099 21.1172H220.327C220.687 21.1172 220.994 20.9911 221.25 20.7387C221.506 20.4957 221.633 20.1967 221.633 19.8415ZM207.19 10.1544C207.436 9.90205 207.739 9.77588 208.099 9.77588H220.327C220.687 9.77588 220.994 9.90205 221.25 10.1544C221.506 10.4067 221.633 10.7105 221.633 11.0656C221.633 11.4114 221.506 11.7105 221.25 11.9628C220.994 12.2152 220.687 12.3414 220.327 12.3414H208.099C207.739 12.3414 207.436 12.2152 207.19 11.9628C206.934 11.7105 206.807 11.4114 206.807 11.0656C206.807 10.7105 206.934 10.4067 207.19 10.1544Z" fill="url(#paint10_linear_0_101)"/>
</g>
<g id="Path_8">
<path d="M233.272 3.56547V19.8415C233.272 20.1967 233.395 20.4957 233.642 20.7387C233.897 20.9911 234.205 21.1172 234.565 21.1172C234.925 21.1172 235.232 20.9911 235.488 20.7387C235.734 20.4957 235.857 20.1967 235.857 19.8415V3.56547H241.424C241.775 3.56547 242.078 3.4393 242.333 3.18696C242.589 2.93462 242.717 2.63087 242.717 2.27573C242.717 1.92993 242.589 1.63085 242.333 1.37851C242.078 1.12617 241.775 1 241.424 1H227.705C227.345 1 227.042 1.12617 226.796 1.37851C226.541 1.63085 226.413 1.92993 226.413 2.27573C226.413 2.63087 226.541 2.93462 226.796 3.18696C227.042 3.4393 227.345 3.56547 227.705 3.56547H233.272Z" fill="#00A4DB"/>
<path d="M233.272 3.56547V19.8415C233.272 20.1967 233.395 20.4957 233.642 20.7387C233.897 20.9911 234.205 21.1172 234.565 21.1172C234.925 21.1172 235.232 20.9911 235.488 20.7387C235.734 20.4957 235.857 20.1967 235.857 19.8415V3.56547H241.424C241.775 3.56547 242.078 3.4393 242.333 3.18696C242.589 2.93462 242.717 2.63087 242.717 2.27573C242.717 1.92993 242.589 1.63085 242.333 1.37851C242.078 1.12617 241.775 1 241.424 1H227.705C227.345 1 227.042 1.12617 226.796 1.37851C226.541 1.63085 226.413 1.92993 226.413 2.27573C226.413 2.63087 226.541 2.93462 226.796 3.18696C227.042 3.4393 227.345 3.56547 227.705 3.56547H233.272Z" fill="url(#paint11_linear_0_101)"/>
</g>
<g id="Path_9">
<path d="M248.788 21.1172C249.148 21.1172 249.456 20.9911 249.712 20.7387C249.967 20.4957 250.095 20.1967 250.095 19.8415V12.3414H260.462V19.8415C260.462 20.1967 260.59 20.4957 260.846 20.7387C261.102 20.9911 261.404 21.1172 261.755 21.1172C262.115 21.1172 262.422 20.9911 262.678 20.7387C262.934 20.4957 263.061 20.1967 263.061 19.8415V2.27573C263.061 1.92993 262.934 1.63085 262.678 1.37851C262.422 1.12617 262.115 1 261.755 1C261.404 1 261.102 1.12617 260.846 1.37851C260.59 1.63085 260.462 1.92993 260.462 2.27573V9.77588H250.095V2.27573C250.095 1.92993 249.967 1.63085 249.712 1.37851C249.456 1.12617 249.148 1 248.788 1C248.429 1 248.126 1.12617 247.88 1.37851C247.624 1.63085 247.496 1.92993 247.496 2.27573V19.8415C247.496 20.1967 247.624 20.4957 247.88 20.7387C248.126 20.9911 248.429 21.1172 248.788 21.1172Z" fill="#00A4DB"/>
<path d="M248.788 21.1172C249.148 21.1172 249.456 20.9911 249.712 20.7387C249.967 20.4957 250.095 20.1967 250.095 19.8415V12.3414H260.462V19.8415C260.462 20.1967 260.59 20.4957 260.846 20.7387C261.102 20.9911 261.404 21.1172 261.755 21.1172C262.115 21.1172 262.422 20.9911 262.678 20.7387C262.934 20.4957 263.061 20.1967 263.061 19.8415V2.27573C263.061 1.92993 262.934 1.63085 262.678 1.37851C262.422 1.12617 262.115 1 261.755 1C261.404 1 261.102 1.12617 260.846 1.37851C260.59 1.63085 260.462 1.92993 260.462 2.27573V9.77588H250.095V2.27573C250.095 1.92993 249.967 1.63085 249.712 1.37851C249.456 1.12617 249.148 1 248.788 1C248.429 1 248.126 1.12617 247.88 1.37851C247.624 1.63085 247.496 1.92993 247.496 2.27573V19.8415C247.496 20.1967 247.624 20.4957 247.88 20.7387C248.126 20.9911 248.429 21.1172 248.788 21.1172Z" fill="url(#paint12_linear_0_101)"/>
</g>
<g id="Path_10">
<path d="M269.133 21.1172C269.493 21.1172 269.801 20.9911 270.056 20.7387C270.312 20.4957 270.44 20.1967 270.44 19.8415V2.27573C270.44 1.92993 270.312 1.63085 270.056 1.37851C269.801 1.12617 269.493 1 269.133 1C268.773 1 268.47 1.12617 268.224 1.37851C267.969 1.63085 267.841 1.92993 267.841 2.27573V19.8415C267.841 20.1967 267.969 20.4957 268.224 20.7387C268.47 20.9911 268.773 21.1172 269.133 21.1172Z" fill="#00A4DB"/>
<path d="M269.133 21.1172C269.493 21.1172 269.801 20.9911 270.056 20.7387C270.312 20.4957 270.44 20.1967 270.44 19.8415V2.27573C270.44 1.92993 270.312 1.63085 270.056 1.37851C269.801 1.12617 269.493 1 269.133 1C268.773 1 268.47 1.12617 268.224 1.37851C267.969 1.63085 267.841 1.92993 267.841 2.27573V19.8415C267.841 20.1967 267.969 20.4957 268.224 20.7387C268.47 20.9911 268.773 21.1172 269.133 21.1172Z" fill="url(#paint13_linear_0_101)"/>
</g>
<g id="Path_11">
<path d="M285.402 21.1172C288.223 21.1172 290.628 20.1359 292.617 18.1733C292.872 17.9209 293 17.6172 293 17.262C293 16.9069 292.872 16.6078 292.617 16.3648C292.361 16.1125 292.053 15.9863 291.693 15.9863C291.334 15.9863 291.031 16.1125 290.784 16.3648C289.298 17.8228 287.504 18.5518 285.402 18.5518C283.31 18.5518 281.52 17.8228 280.034 16.3648C278.557 14.8975 277.818 13.1311 277.818 11.0656C277.818 8.99082 278.557 7.21976 280.034 5.75244C281.52 4.29446 283.31 3.56547 285.402 3.56547C287.504 3.56547 289.298 4.29446 290.784 5.75244C291.031 6.00478 291.334 6.13095 291.693 6.13095C292.053 6.13095 292.361 6.00478 292.617 5.75244C292.872 5.50944 293 5.21037 293 4.85522C293 4.50007 292.872 4.19633 292.617 3.94399C290.628 1.98133 288.223 1 285.402 1C282.59 1 280.19 1.98133 278.202 3.94399C276.213 5.90664 275.219 8.28053 275.219 11.0656C275.219 13.8414 276.213 16.2106 278.202 18.1733C280.19 20.1359 282.59 21.1172 285.402 21.1172Z" fill="#00A4DB"/>
<path d="M285.402 21.1172C288.223 21.1172 290.628 20.1359 292.617 18.1733C292.872 17.9209 293 17.6172 293 17.262C293 16.9069 292.872 16.6078 292.617 16.3648C292.361 16.1125 292.053 15.9863 291.693 15.9863C291.334 15.9863 291.031 16.1125 290.784 16.3648C289.298 17.8228 287.504 18.5518 285.402 18.5518C283.31 18.5518 281.52 17.8228 280.034 16.3648C278.557 14.8975 277.818 13.1311 277.818 11.0656C277.818 8.99082 278.557 7.21976 280.034 5.75244C281.52 4.29446 283.31 3.56547 285.402 3.56547C287.504 3.56547 289.298 4.29446 290.784 5.75244C291.031 6.00478 291.334 6.13095 291.693 6.13095C292.053 6.13095 292.361 6.00478 292.617 5.75244C292.872 5.50944 293 5.21037 293 4.85522C293 4.50007 292.872 4.19633 292.617 3.94399C290.628 1.98133 288.223 1 285.402 1C282.59 1 280.19 1.98133 278.202 3.94399C276.213 5.90664 275.219 8.28053 275.219 11.0656C275.219 13.8414 276.213 16.2106 278.202 18.1733C280.19 20.1359 282.59 21.1172 285.402 21.1172Z" fill="url(#paint14_linear_0_101)"/>
</g>
</g>
</g>
<g id="Archethic Logo">
<g id="AE">
<g id="AE_2">
<path id="Path_12" fill-rule="evenodd" clip-rule="evenodd" d="M77.6663 46C78.7266 46 79.5431 45.5619 80.1156 44.6857C80.6882 43.7882 80.7624 42.8585 80.3383 41.8969L62.9071 1.76307C62.3981 0.587689 61.5075 0 60.2351 0C58.984 0 58.1039 0.587689 57.595 1.76307L40.1638 41.8969C39.8457 42.6448 39.8351 43.3928 40.1319 44.1408C40.4076 44.8887 40.9166 45.423 41.6588 45.7436C42.0405 45.9145 42.4328 46 42.8357 46C44.0868 46 44.9669 45.4123 45.4758 44.2369L60.2351 10.2258L73.2449 40.1338H56.1C55.2941 40.1338 54.605 40.4223 54.0324 40.9993C53.481 41.5763 53.2054 42.2708 53.2054 43.0829C53.2054 43.8736 53.481 44.5575 54.0324 45.1345C54.605 45.7115 55.2941 46 56.1 46H77.6663Z" fill="url(#paint15_linear_0_101)"/>
<path id="Path_13" fill-rule="evenodd" clip-rule="evenodd" d="M108.414 5.45763C109.402 5.45763 110.246 5.18922 110.948 4.6524C111.649 4.11559 112 3.46942 112 2.7139C112 1.97827 111.649 1.34204 110.948 0.805224C110.246 0.268408 109.402 0 108.414 0H74.8549C73.8674 0 73.0359 0.268408 72.3603 0.805224C71.6587 1.34204 71.308 1.97827 71.308 2.7139C71.308 3.46942 71.6587 4.11559 72.3603 4.6524C73.0359 5.18922 73.8674 5.45763 74.8549 5.45763H108.414Z" fill="url(#paint16_linear_0_101)"/>
<path id="Path_14" fill-rule="evenodd" clip-rule="evenodd" d="M108.778 26.1186C109.558 26.1186 110.226 25.8119 110.781 25.1984C111.335 24.5849 111.612 23.8578 111.612 23.017C111.612 22.1536 111.335 21.4151 110.781 20.8016C110.226 20.1881 109.558 19.8813 108.778 19.8813H82.2501C81.4696 19.8813 80.8123 20.1881 80.2783 20.8016C79.7237 21.4151 79.4464 22.1536 79.4464 23.017C79.4464 23.8578 79.7237 24.5849 80.2783 25.1984C80.8123 25.8119 81.4696 26.1186 82.2501 26.1186H108.778Z" fill="url(#paint17_linear_0_101)"/>
<path id="Path_15" fill-rule="evenodd" clip-rule="evenodd" d="M109.529 46C110.103 46 110.593 45.7316 111.001 45.1948C111.409 44.6778 111.612 44.0416 111.612 43.2861C111.612 42.5306 111.409 41.8844 111.001 41.3476C110.593 40.8108 110.103 40.5424 109.529 40.5424H90.0329C89.4593 40.5424 88.9762 40.8108 88.5837 41.3476C88.1761 41.8844 87.9723 42.5306 87.9723 43.2861C87.9723 44.0416 88.1761 44.6778 88.5837 45.1948C88.9762 45.7316 89.4593 46 90.0329 46H109.529Z" fill="url(#paint18_linear_0_101)"/>
</g>
</g>
<g id="Logo">
<path id="Path_16" d="M11.7413 6.39252C12.2248 6.29321 13.7225 6.00438 15.6309 6.0241C18.7602 6.05647 21.1843 6.89836 22.6697 7.42783C24.3866 8.03972 28.1912 9.59388 32.0391 13.0859C33.4913 14.4037 34.574 15.6567 35.3102 16.5863C35.6536 15.8727 35.9488 15.1407 36.1886 14.4075C36.5038 13.4436 36.7362 12.4472 36.8793 11.4463L37.1056 9.86345C36.189 8.94146 34.957 7.80394 33.4068 6.63152C32.6693 6.07379 30.3225 4.34552 27.3203 2.95172C24.9397 1.8465 19.4009 -0.724882 12.2781 0.19514C6.99151 0.87797 3.27536 3.16856 2.41721 3.71584C1.79141 4.11491 1.18446 4.54408 0.613032 4.99163L0.219906 5.2995L0.161443 5.80938C0.0766104 6.54877 0.024553 7.31309 0.00661 8.08064C-0.0518513 10.607 0.250097 14.5121 2.02079 18.7691C2.53188 19.9982 3.14473 21.2065 3.84235 22.3606C4.03562 22.6803 4.42307 23.2946 4.99811 24.0849C4.93879 23.6377 4.88713 23.19 4.84417 22.7486C4.59255 20.1667 4.59428 17.5298 4.84903 14.9115C5.05985 12.7451 5.41031 11.0051 5.66182 9.90664C5.77614 9.40747 5.88207 8.98969 5.96194 8.68584C6.64401 8.26609 7.50846 7.79613 8.54419 7.36958C9.18028 7.10757 10.296 6.68942 11.7413 6.39252Z" fill="url(#paint19_linear_0_101)"/>
<path id="Path_17" d="M28.4633 37.0253C26.5343 37.9154 24.893 38.4667 23.8414 38.7874C23.3636 38.9331 22.9584 39.0458 22.6624 39.1252C21.9631 38.7186 21.129 38.1722 20.2445 37.4496C19.7012 37.0058 18.7832 36.2067 17.7998 35.0495C17.4708 34.6623 16.4676 33.4538 15.5154 31.7204C13.9541 28.878 13.4315 26.2688 13.1227 24.6632C12.7658 22.8075 12.1415 18.5961 13.125 13.3793C13.4961 11.4106 14.0003 9.80781 14.4084 8.67926C13.634 8.725 12.8685 8.82356 12.1301 8.97265C11.1594 9.16867 10.2035 9.45573 9.28902 9.82574L7.8429 10.4108C7.53278 11.6984 7.20149 13.3785 7.00243 15.3633C6.90774 16.3075 6.64554 19.289 6.99741 22.6956C7.27639 25.3969 7.92547 31.6815 12.3151 37.6556C15.5731 42.0896 19.386 44.3034 20.2819 44.8054C20.9352 45.1716 21.6043 45.5057 22.2708 45.7985L22.7292 46L23.1877 45.7985C23.8527 45.5063 24.5219 45.1722 25.1766 44.8056C27.3309 43.5984 30.462 41.3779 33.1434 37.6555C33.9176 36.581 34.6227 35.4248 35.2392 34.2192C35.41 33.8852 35.73 33.2288 36.1027 32.3154C35.7567 32.592 35.4064 32.862 35.0569 33.1209C33.0132 34.6358 30.7947 35.9494 28.4633 37.0253Z" fill="url(#paint20_linear_0_101)"/>
<path id="Path_18" d="M45.7243 8.02021C45.7065 7.25729 45.6542 6.49629 45.5686 5.75824L45.5098 5.25048L45.1143 4.94388C44.5407 4.49925 43.93 4.07175 43.2994 3.67333C41.2234 2.3627 37.817 0.690394 33.3787 0.167357C32.0973 0.016213 30.7821 -0.0329027 29.4694 0.0214252C29.1057 0.0365232 28.3988 0.0799892 27.451 0.204895C27.8535 0.374135 28.2526 0.550435 28.642 0.731558C30.9204 1.79027 33.1169 3.10477 35.1709 4.63825C36.8703 5.90702 38.144 7.08942 38.933 7.86316C39.2914 8.21476 39.5863 8.51833 39.7993 8.74162C39.8061 9.56564 39.7629 10.579 39.5974 11.7253C39.4958 12.4293 39.283 13.6435 38.8034 15.0944C38.6429 15.58 38.1303 17.074 37.1538 18.785C35.5528 21.5904 33.6318 23.3569 32.4434 24.4326C31.0698 25.6759 27.8608 28.3325 23.015 30.0632C21.1863 30.7163 19.5975 31.0687 18.4525 31.2696C18.8744 31.9345 19.336 32.5651 19.8263 33.1464C20.4711 33.9106 21.1845 34.6162 21.9467 35.2436L23.152 36.2358C24.3814 35.8685 25.9491 35.324 27.7059 34.5101C28.5418 34.1229 31.1625 32.8674 33.8343 30.8545C35.9529 29.2583 40.8819 25.5447 43.6981 18.6643C45.7883 13.5577 45.7487 9.0665 45.7243 8.02021Z" fill="url(#paint21_linear_0_101)"/>
</g>
</g>
</g>
<defs>
<linearGradient id="paint0_linear_0_101" x1="121.143" y1="27.4921" x2="121.143" y2="46" gradientUnits="userSpaceOnUse">
<stop stop-color="#00A4DB"/>
<stop offset="1" stop-color="#CC00FF"/>
</linearGradient>
<linearGradient id="paint1_linear_0_101" x1="154.752" y1="27.4921" x2="154.752" y2="46" gradientUnits="userSpaceOnUse">
<stop stop-color="#00A4DB"/>
<stop offset="1" stop-color="#CC00FF"/>
</linearGradient>
<linearGradient id="paint2_linear_0_101" x1="187.851" y1="27.4921" x2="187.851" y2="46" gradientUnits="userSpaceOnUse">
<stop stop-color="#00A4DB"/>
<stop offset="1" stop-color="#CC00FF"/>
</linearGradient>
<linearGradient id="paint3_linear_0_101" x1="209.531" y1="27.4921" x2="209.531" y2="46" gradientUnits="userSpaceOnUse">
<stop stop-color="#00A4DB"/>
<stop offset="1" stop-color="#CC00FF"/>
</linearGradient>
<linearGradient id="paint4_linear_0_101" x1="243.48" y1="27.4921" x2="243.48" y2="46" gradientUnits="userSpaceOnUse">
<stop stop-color="#00A4DB"/>
<stop offset="1" stop-color="#CC00FF"/>
</linearGradient>
<linearGradient id="paint5_linear_0_101" x1="279.114" y1="27.4921" x2="279.114" y2="46" gradientUnits="userSpaceOnUse">
<stop stop-color="#00A4DB"/>
<stop offset="1" stop-color="#CC00FF"/>
</linearGradient>
<linearGradient id="paint6_linear_0_101" x1="121" y1="1" x2="121" y2="21.1172" gradientUnits="userSpaceOnUse">
<stop stop-color="#00A4DB"/>
<stop offset="1" stop-color="#CC00FF"/>
</linearGradient>
<linearGradient id="paint7_linear_0_101" x1="144.111" y1="1" x2="144.111" y2="21.1172" gradientUnits="userSpaceOnUse">
<stop stop-color="#00A4DB"/>
<stop offset="1" stop-color="#CC00FF"/>
</linearGradient>
<linearGradient id="paint8_linear_0_101" x1="163.902" y1="1" x2="163.902" y2="21.1172" gradientUnits="userSpaceOnUse">
<stop stop-color="#00A4DB"/>
<stop offset="1" stop-color="#CC00FF"/>
</linearGradient>
<linearGradient id="paint9_linear_0_101" x1="186.462" y1="1" x2="186.462" y2="21.1172" gradientUnits="userSpaceOnUse">
<stop stop-color="#00A4DB"/>
<stop offset="1" stop-color="#CC00FF"/>
</linearGradient>
<linearGradient id="paint10_linear_0_101" x1="206.807" y1="1" x2="206.807" y2="21.1172" gradientUnits="userSpaceOnUse">
<stop stop-color="#00A4DB"/>
<stop offset="1" stop-color="#CC00FF"/>
</linearGradient>
<linearGradient id="paint11_linear_0_101" x1="226.413" y1="1" x2="226.413" y2="21.1172" gradientUnits="userSpaceOnUse">
<stop stop-color="#00A4DB"/>
<stop offset="1" stop-color="#CC00FF"/>
</linearGradient>
<linearGradient id="paint12_linear_0_101" x1="247.496" y1="1" x2="247.496" y2="21.1172" gradientUnits="userSpaceOnUse">
<stop stop-color="#00A4DB"/>
<stop offset="1" stop-color="#CC00FF"/>
</linearGradient>
<linearGradient id="paint13_linear_0_101" x1="267.841" y1="1" x2="267.841" y2="21.1172" gradientUnits="userSpaceOnUse">
<stop stop-color="#00A4DB"/>
<stop offset="1" stop-color="#CC00FF"/>
</linearGradient>
<linearGradient id="paint14_linear_0_101" x1="275.219" y1="1" x2="275.219" y2="21.1172" gradientUnits="userSpaceOnUse">
<stop stop-color="#00A4DB"/>
<stop offset="1" stop-color="#CC00FF"/>
</linearGradient>
<linearGradient id="paint15_linear_0_101" x1="46.9646" y1="49.4147" x2="79.4427" y2="29.6986" gradientUnits="userSpaceOnUse">
<stop stop-color="#00A4DB"/>
<stop offset="1" stop-color="#CC00FF"/>
</linearGradient>
<linearGradient id="paint16_linear_0_101" x1="78.3556" y1="5.86277" x2="79.9909" y2="-2.50436" gradientUnits="userSpaceOnUse">
<stop stop-color="#00A4DB"/>
<stop offset="1" stop-color="#CC00FF"/>
</linearGradient>
<linearGradient id="paint17_linear_0_101" x1="85.0174" y1="26.5817" x2="87.6152" y2="17.388" gradientUnits="userSpaceOnUse">
<stop stop-color="#00A4DB"/>
<stop offset="1" stop-color="#CC00FF"/>
</linearGradient>
<linearGradient id="paint18_linear_0_101" x1="92.0667" y1="46.4051" x2="94.6919" y2="38.6016" gradientUnits="userSpaceOnUse">
<stop stop-color="#00A4DB"/>
<stop offset="1" stop-color="#CC00FF"/>
</linearGradient>
<linearGradient id="paint19_linear_0_101" x1="6.42648" y1="25.8728" x2="25.5644" y2="5.63938" gradientUnits="userSpaceOnUse">
<stop stop-color="#00A4DB"/>
<stop offset="1" stop-color="#CC00FF"/>
</linearGradient>
<linearGradient id="paint20_linear_0_101" x1="11.8911" y1="48.7705" x2="36.6873" y2="35.4188" gradientUnits="userSpaceOnUse">
<stop stop-color="#00A4DB"/>
<stop offset="1" stop-color="#CC00FF"/>
</linearGradient>
<linearGradient id="paint21_linear_0_101" x1="23.1768" y1="38.9258" x2="46.6952" y2="26.7763" gradientUnits="userSpaceOnUse">
<stop stop-color="#00A4DB"/>
<stop offset="1" stop-color="#CC00FF"/>
</linearGradient>
</defs>
</svg>
