<svg width="77" height="11" viewBox="0 0 77 11" fill="none" xmlns="http://www.w3.org/2000/svg">
<g id="Archethic Technologies - White">
<g id="Label">
<g id="TECHNOLOGIES">
<g id="Path">
<path d="M29.4141 7.4085V10.7389C29.4141 10.8116 29.4395 10.8728 29.4903 10.9225C29.543 10.9742 29.6064 11 29.6806 11C29.7548 11 29.8182 10.9742 29.8709 10.9225C29.9216 10.8728 29.947 10.8116 29.947 10.7389V7.4085H31.0947C31.167 7.4085 31.2294 7.38268 31.2821 7.33105C31.3348 7.27941 31.3612 7.21726 31.3612 7.14459C31.3612 7.07383 31.3348 7.01263 31.2821 6.961C31.2294 6.90936 31.167 6.88354 31.0947 6.88354H28.2664C28.1923 6.88354 28.1298 6.90936 28.0791 6.961C28.0264 7.01263 28 7.07383 28 7.14459C28 7.21726 28.0264 7.27941 28.0791 7.33105C28.1298 7.38268 28.1923 7.4085 28.2664 7.4085H29.4141Z" fill="#00A4DB"/>
<path d="M29.4141 7.4085V10.7389C29.4141 10.8116 29.4395 10.8728 29.4903 10.9225C29.543 10.9742 29.6064 11 29.6806 11C29.7548 11 29.8182 10.9742 29.8709 10.9225C29.9216 10.8728 29.947 10.8116 29.947 10.7389V7.4085H31.0947C31.167 7.4085 31.2294 7.38268 31.2821 7.33105C31.3348 7.27941 31.3612 7.21726 31.3612 7.14459C31.3612 7.07383 31.3348 7.01263 31.2821 6.961C31.2294 6.90936 31.167 6.88354 31.0947 6.88354H28.2664C28.1923 6.88354 28.1298 6.90936 28.0791 6.961C28.0264 7.01263 28 7.07383 28 7.14459C28 7.21726 28.0264 7.27941 28.0791 7.33105C28.1298 7.38268 28.1923 7.4085 28.2664 7.4085H29.4141Z" fill="url(#paint0_linear_0_48)"/>
</g>
<g id="Shape">
<path fill-rule="evenodd" clip-rule="evenodd" d="M32.6129 6.88354C32.5388 6.88354 32.4763 6.90936 32.4255 6.961C32.3728 7.01263 32.3465 7.07383 32.3465 7.14459C32.3465 7.21726 32.3728 7.27941 32.4255 7.33105C32.4763 7.38268 32.5388 7.4085 32.6129 7.4085H35.1338C35.208 7.4085 35.2714 7.38268 35.3241 7.33105C35.3768 7.27941 35.4032 7.21726 35.4032 7.14459C35.4032 7.07383 35.3768 7.01263 35.3241 6.961C35.2714 6.90936 35.208 6.88354 35.1338 6.88354H32.6129ZM35.4032 10.7389C35.4032 10.6663 35.3768 10.6041 35.3241 10.5525C35.2714 10.5009 35.208 10.475 35.1338 10.475H32.6129C32.5388 10.475 32.4763 10.5009 32.4255 10.5525C32.3728 10.6041 32.3465 10.6663 32.3465 10.7389C32.3465 10.8116 32.3728 10.8728 32.4255 10.9225C32.4763 10.9742 32.5388 11 32.6129 11H35.1338C35.208 11 35.2714 10.9742 35.3241 10.9225C35.3768 10.8728 35.4032 10.8116 35.4032 10.7389ZM32.4255 8.75674C32.4763 8.70511 32.5388 8.67929 32.6129 8.67929H35.1338C35.208 8.67929 35.2714 8.70511 35.3241 8.75674C35.3768 8.80838 35.4032 8.87053 35.4032 8.9432C35.4032 9.01396 35.3768 9.07516 35.3241 9.12679C35.2714 9.17843 35.208 9.20424 35.1338 9.20424H32.6129C32.5388 9.20424 32.4763 9.17843 32.4255 9.12679C32.3728 9.07516 32.3465 9.01396 32.3465 8.9432C32.3465 8.87053 32.3728 8.80838 32.4255 8.75674Z" fill="#00A4DB"/>
<path fill-rule="evenodd" clip-rule="evenodd" d="M32.6129 6.88354C32.5388 6.88354 32.4763 6.90936 32.4255 6.961C32.3728 7.01263 32.3465 7.07383 32.3465 7.14459C32.3465 7.21726 32.3728 7.27941 32.4255 7.33105C32.4763 7.38268 32.5388 7.4085 32.6129 7.4085H35.1338C35.208 7.4085 35.2714 7.38268 35.3241 7.33105C35.3768 7.27941 35.4032 7.21726 35.4032 7.14459C35.4032 7.07383 35.3768 7.01263 35.3241 6.961C35.2714 6.90936 35.208 6.88354 35.1338 6.88354H32.6129ZM35.4032 10.7389C35.4032 10.6663 35.3768 10.6041 35.3241 10.5525C35.2714 10.5009 35.208 10.475 35.1338 10.475H32.6129C32.5388 10.475 32.4763 10.5009 32.4255 10.5525C32.3728 10.6041 32.3465 10.6663 32.3465 10.7389C32.3465 10.8116 32.3728 10.8728 32.4255 10.9225C32.4763 10.9742 32.5388 11 32.6129 11H35.1338C35.208 11 35.2714 10.9742 35.3241 10.9225C35.3768 10.8728 35.4032 10.8116 35.4032 10.7389ZM32.4255 8.75674C32.4763 8.70511 32.5388 8.67929 32.6129 8.67929H35.1338C35.208 8.67929 35.2714 8.70511 35.3241 8.75674C35.3768 8.80838 35.4032 8.87053 35.4032 8.9432C35.4032 9.01396 35.3768 9.07516 35.3241 9.12679C35.2714 9.17843 35.208 9.20424 35.1338 9.20424H32.6129C32.5388 9.20424 32.4763 9.17843 32.4255 9.12679C32.3728 9.07516 32.3465 9.01396 32.3465 8.9432C32.3465 8.87053 32.3728 8.80838 32.4255 8.75674Z" fill="url(#paint1_linear_0_48)"/>
</g>
<g id="Path_2">
<path d="M38.4877 11C39.0694 11 39.5652 10.7992 39.9751 10.3976C40.0278 10.3459 40.0541 10.2838 40.0541 10.2111C40.0541 10.1385 40.0278 10.0773 39.9751 10.0275C39.9224 9.9759 39.8589 9.95008 39.7848 9.95008C39.7106 9.95008 39.6481 9.9759 39.5974 10.0275C39.2909 10.3259 38.921 10.475 38.4877 10.475C38.0564 10.475 37.6874 10.3259 37.381 10.0275C37.0765 9.72729 36.9243 9.36584 36.9243 8.9432C36.9243 8.51865 37.0765 8.15625 37.381 7.856C37.6874 7.55767 38.0564 7.4085 38.4877 7.4085C38.921 7.4085 39.2909 7.55767 39.5974 7.856C39.6481 7.90764 39.7106 7.93345 39.7848 7.93345C39.8589 7.93345 39.9224 7.90764 39.9751 7.856C40.0278 7.80628 40.0541 7.74508 40.0541 7.67241C40.0541 7.59974 40.0278 7.53759 39.9751 7.48595C39.5652 7.08435 39.0694 6.88354 38.4877 6.88354C37.908 6.88354 37.4132 7.08435 37.0033 7.48595C36.5934 7.88756 36.3885 8.37331 36.3885 8.9432C36.3885 9.51119 36.5934 9.99598 37.0033 10.3976C37.4132 10.7992 37.908 11 38.4877 11Z" fill="#00A4DB"/>
<path d="M38.4877 11C39.0694 11 39.5652 10.7992 39.9751 10.3976C40.0278 10.3459 40.0541 10.2838 40.0541 10.2111C40.0541 10.1385 40.0278 10.0773 39.9751 10.0275C39.9224 9.9759 39.8589 9.95008 39.7848 9.95008C39.7106 9.95008 39.6481 9.9759 39.5974 10.0275C39.2909 10.3259 38.921 10.475 38.4877 10.475C38.0564 10.475 37.6874 10.3259 37.381 10.0275C37.0765 9.72729 36.9243 9.36584 36.9243 8.9432C36.9243 8.51865 37.0765 8.15625 37.381 7.856C37.6874 7.55767 38.0564 7.4085 38.4877 7.4085C38.921 7.4085 39.2909 7.55767 39.5974 7.856C39.6481 7.90764 39.7106 7.93345 39.7848 7.93345C39.8589 7.93345 39.9224 7.90764 39.9751 7.856C40.0278 7.80628 40.0541 7.74508 40.0541 7.67241C40.0541 7.59974 40.0278 7.53759 39.9751 7.48595C39.5652 7.08435 39.0694 6.88354 38.4877 6.88354C37.908 6.88354 37.4132 7.08435 37.0033 7.48595C36.5934 7.88756 36.3885 8.37331 36.3885 8.9432C36.3885 9.51119 36.5934 9.99598 37.0033 10.3976C37.4132 10.7992 37.908 11 38.4877 11Z" fill="url(#paint2_linear_0_48)"/>
</g>
<g id="Path_3">
<path d="M41.3059 11C41.38 11 41.4435 10.9742 41.4962 10.9225C41.5489 10.8728 41.5752 10.8116 41.5752 10.7389V9.20424H43.7125V10.7389C43.7125 10.8116 43.7389 10.8728 43.7916 10.9225C43.8443 10.9742 43.9068 11 43.979 11C44.0532 11 44.1166 10.9742 44.1693 10.9225C44.222 10.8728 44.2483 10.8116 44.2483 10.7389V7.14459C44.2483 7.07383 44.222 7.01263 44.1693 6.961C44.1166 6.90936 44.0532 6.88354 43.979 6.88354C43.9068 6.88354 43.8443 6.90936 43.7916 6.961C43.7389 7.01263 43.7125 7.07383 43.7125 7.14459V8.67929H41.5752V7.14459C41.5752 7.07383 41.5489 7.01263 41.4962 6.961C41.4435 6.90936 41.38 6.88354 41.3059 6.88354C41.2317 6.88354 41.1692 6.90936 41.1185 6.961C41.0658 7.01263 41.0394 7.07383 41.0394 7.14459V10.7389C41.0394 10.8116 41.0658 10.8728 41.1185 10.9225C41.1692 10.9742 41.2317 11 41.3059 11Z" fill="#00A4DB"/>
<path d="M41.3059 11C41.38 11 41.4435 10.9742 41.4962 10.9225C41.5489 10.8728 41.5752 10.8116 41.5752 10.7389V9.20424H43.7125V10.7389C43.7125 10.8116 43.7389 10.8728 43.7916 10.9225C43.8443 10.9742 43.9068 11 43.979 11C44.0532 11 44.1166 10.9742 44.1693 10.9225C44.222 10.8728 44.2483 10.8116 44.2483 10.7389V7.14459C44.2483 7.07383 44.222 7.01263 44.1693 6.961C44.1166 6.90936 44.0532 6.88354 43.979 6.88354C43.9068 6.88354 43.8443 6.90936 43.7916 6.961C43.7389 7.01263 43.7125 7.07383 43.7125 7.14459V8.67929H41.5752V7.14459C41.5752 7.07383 41.5489 7.01263 41.4962 6.961C41.4435 6.90936 41.38 6.88354 41.3059 6.88354C41.2317 6.88354 41.1692 6.90936 41.1185 6.961C41.0658 7.01263 41.0394 7.07383 41.0394 7.14459V10.7389C41.0394 10.8116 41.0658 10.8728 41.1185 10.9225C41.1692 10.9742 41.2317 11 41.3059 11Z" fill="url(#paint3_linear_0_48)"/>
</g>
<g id="Path_4">
<path d="M45.5001 11C45.5743 11 45.6377 10.9742 45.6904 10.9226C45.7431 10.8729 45.7695 10.8117 45.7695 10.739V7.91343L48.1147 10.8968C48.1693 10.9656 48.2406 11 48.3284 11C48.3577 11 48.386 10.9953 48.4133 10.9857C48.5343 10.9455 48.5948 10.8633 48.5948 10.739V7.14464C48.5948 7.07389 48.5685 7.01269 48.5158 6.96105C48.4631 6.90942 48.4006 6.8836 48.3284 6.8836C48.2542 6.8836 48.1908 6.90942 48.1381 6.96105C48.0854 7.01269 48.059 7.07389 48.059 7.14464V9.97022L45.7138 6.98687C45.6358 6.88743 45.5362 6.85778 45.4152 6.89794C45.2942 6.93811 45.2337 7.02034 45.2337 7.14464V10.739C45.2337 10.8117 45.26 10.8729 45.3127 10.9226C45.3635 10.9742 45.4259 11 45.5001 11Z" fill="#00A4DB"/>
<path d="M45.5001 11C45.5743 11 45.6377 10.9742 45.6904 10.9226C45.7431 10.8729 45.7695 10.8117 45.7695 10.739V7.91343L48.1147 10.8968C48.1693 10.9656 48.2406 11 48.3284 11C48.3577 11 48.386 10.9953 48.4133 10.9857C48.5343 10.9455 48.5948 10.8633 48.5948 10.739V7.14464C48.5948 7.07389 48.5685 7.01269 48.5158 6.96105C48.4631 6.90942 48.4006 6.8836 48.3284 6.8836C48.2542 6.8836 48.1908 6.90942 48.1381 6.96105C48.0854 7.01269 48.059 7.07389 48.059 7.14464V9.97022L45.7138 6.98687C45.6358 6.88743 45.5362 6.85778 45.4152 6.89794C45.2942 6.93811 45.2337 7.02034 45.2337 7.14464V10.739C45.2337 10.8117 45.26 10.8729 45.3127 10.9226C45.3635 10.9742 45.4259 11 45.5001 11Z" fill="url(#paint4_linear_0_48)"/>
</g>
<g id="Shape_2">
<path fill-rule="evenodd" clip-rule="evenodd" d="M53.1668 10.3976C52.7569 10.7992 52.2611 11 51.6794 11C51.0997 11 50.6049 10.7992 50.195 10.3976C49.7851 9.99598 49.5802 9.51119 49.5802 8.9432C49.5802 8.37331 49.7851 7.88756 50.195 7.48595C50.6049 7.08435 51.0997 6.88354 51.6794 6.88354C52.2611 6.88354 52.7569 7.08435 53.1668 7.48595C53.5767 7.88756 53.7816 8.37331 53.7816 8.9432C53.7816 9.51119 53.5767 9.99598 53.1668 10.3976ZM52.7862 7.85887C52.4817 7.55862 52.1128 7.4085 51.6794 7.4085C51.2481 7.4085 50.8792 7.55862 50.5727 7.85887C50.2682 8.1572 50.116 8.51865 50.116 8.9432C50.116 9.36584 50.2682 9.72729 50.5727 10.0275C50.8792 10.3259 51.2481 10.475 51.6794 10.475C52.1128 10.475 52.4817 10.3259 52.7862 10.0275C53.0926 9.72729 53.2458 9.36584 53.2458 8.9432C53.2458 8.51865 53.0926 8.1572 52.7862 7.85887Z" fill="#00A4DB"/>
<path fill-rule="evenodd" clip-rule="evenodd" d="M53.1668 10.3976C52.7569 10.7992 52.2611 11 51.6794 11C51.0997 11 50.6049 10.7992 50.195 10.3976C49.7851 9.99598 49.5802 9.51119 49.5802 8.9432C49.5802 8.37331 49.7851 7.88756 50.195 7.48595C50.6049 7.08435 51.0997 6.88354 51.6794 6.88354C52.2611 6.88354 52.7569 7.08435 53.1668 7.48595C53.5767 7.88756 53.7816 8.37331 53.7816 8.9432C53.7816 9.51119 53.5767 9.99598 53.1668 10.3976ZM52.7862 7.85887C52.4817 7.55862 52.1128 7.4085 51.6794 7.4085C51.2481 7.4085 50.8792 7.55862 50.5727 7.85887C50.2682 8.1572 50.116 8.51865 50.116 8.9432C50.116 9.36584 50.2682 9.72729 50.5727 10.0275C50.8792 10.3259 51.2481 10.475 51.6794 10.475C52.1128 10.475 52.4817 10.3259 52.7862 10.0275C53.0926 9.72729 53.2458 9.36584 53.2458 8.9432C53.2458 8.51865 53.0926 8.1572 52.7862 7.85887Z" fill="url(#paint5_linear_0_48)"/>
</g>
<g id="Path_5">
<path d="M57.6304 11C57.7045 11 57.768 10.9742 57.8207 10.9225C57.8734 10.8728 57.8997 10.8116 57.8997 10.7389C57.8997 10.6663 57.8734 10.6041 57.8207 10.5525C57.768 10.5009 57.7045 10.475 57.6304 10.475H55.3027V7.14459C55.3027 7.07383 55.2764 7.01263 55.2237 6.961C55.171 6.90936 55.1075 6.88354 55.0334 6.88354C54.9592 6.88354 54.8967 6.90936 54.846 6.961C54.7933 7.01263 54.7669 7.07383 54.7669 7.14459V10.7389C54.7669 10.8116 54.7933 10.8728 54.846 10.9225C54.8967 10.9742 54.9592 11 55.0334 11H57.6304Z" fill="#00A4DB"/>
<path d="M57.6304 11C57.7045 11 57.768 10.9742 57.8207 10.9225C57.8734 10.8728 57.8997 10.8116 57.8997 10.7389C57.8997 10.6663 57.8734 10.6041 57.8207 10.5525C57.768 10.5009 57.7045 10.475 57.6304 10.475H55.3027V7.14459C55.3027 7.07383 55.2764 7.01263 55.2237 6.961C55.171 6.90936 55.1075 6.88354 55.0334 6.88354C54.9592 6.88354 54.8967 6.90936 54.846 6.961C54.7933 7.01263 54.7669 7.07383 54.7669 7.14459V10.7389C54.7669 10.8116 54.7933 10.8728 54.846 10.9225C54.8967 10.9742 54.9592 11 55.0334 11H57.6304Z" fill="url(#paint6_linear_0_48)"/>
</g>
<g id="Shape_3">
<path fill-rule="evenodd" clip-rule="evenodd" d="M62.091 10.3976C61.6811 10.7992 61.1854 11 60.6037 11C60.024 11 59.5292 10.7992 59.1193 10.3976C58.7094 9.99598 58.5044 9.51119 58.5044 8.9432C58.5044 8.37331 58.7094 7.88756 59.1193 7.48595C59.5292 7.08435 60.024 6.88354 60.6037 6.88354C61.1854 6.88354 61.6811 7.08435 62.091 7.48595C62.5009 7.88756 62.7059 8.37331 62.7059 8.9432C62.7059 9.51119 62.5009 9.99598 62.091 10.3976ZM61.7104 7.85887C61.4059 7.55862 61.037 7.4085 60.6037 7.4085C60.1723 7.4085 59.8034 7.55862 59.497 7.85887C59.1925 8.1572 59.0402 8.51865 59.0402 8.9432C59.0402 9.36584 59.1925 9.72729 59.497 10.0275C59.8034 10.3259 60.1723 10.475 60.6037 10.475C61.037 10.475 61.4059 10.3259 61.7104 10.0275C62.0169 9.72729 62.1701 9.36584 62.1701 8.9432C62.1701 8.51865 62.0169 8.1572 61.7104 7.85887Z" fill="#00A4DB"/>
<path fill-rule="evenodd" clip-rule="evenodd" d="M62.091 10.3976C61.6811 10.7992 61.1854 11 60.6037 11C60.024 11 59.5292 10.7992 59.1193 10.3976C58.7094 9.99598 58.5044 9.51119 58.5044 8.9432C58.5044 8.37331 58.7094 7.88756 59.1193 7.48595C59.5292 7.08435 60.024 6.88354 60.6037 6.88354C61.1854 6.88354 61.6811 7.08435 62.091 7.48595C62.5009 7.88756 62.7059 8.37331 62.7059 8.9432C62.7059 9.51119 62.5009 9.99598 62.091 10.3976ZM61.7104 7.85887C61.4059 7.55862 61.037 7.4085 60.6037 7.4085C60.1723 7.4085 59.8034 7.55862 59.497 7.85887C59.1925 8.1572 59.0402 8.51865 59.0402 8.9432C59.0402 9.36584 59.1925 9.72729 59.497 10.0275C59.8034 10.3259 60.1723 10.475 60.6037 10.475C61.037 10.475 61.4059 10.3259 61.7104 10.0275C62.0169 9.72729 62.1701 9.36584 62.1701 8.9432C62.1701 8.51865 62.0169 8.1572 61.7104 7.85887Z" fill="url(#paint7_linear_0_48)"/>
</g>
<g id="Path_6">
<path d="M64.306 10.3976C64.7159 10.7992 65.2107 11 65.7905 11C66.3721 11 66.8679 10.7992 67.2778 10.3976C67.3286 10.3459 67.3539 10.2838 67.3539 10.2111V8.9432C67.3539 8.87053 67.3286 8.80838 67.2778 8.75674C67.2251 8.70511 67.1617 8.67929 67.0875 8.67929H65.7143C65.6421 8.67929 65.5797 8.70511 65.527 8.75674C65.4742 8.80838 65.4479 8.87053 65.4479 8.9432C65.4479 9.01396 65.4742 9.07516 65.527 9.12679C65.5797 9.17843 65.6421 9.20424 65.7143 9.20424H66.8211V10.0992C66.5127 10.3632 66.1525 10.4884 65.7407 10.475C65.3288 10.4616 64.9765 10.3125 64.6837 10.0275C64.3792 9.72729 64.227 9.36584 64.227 8.9432C64.227 8.51865 64.3792 8.15625 64.6837 7.856C64.9902 7.55767 65.3591 7.4085 65.7905 7.4085C66.2238 7.4085 66.5937 7.55767 66.9001 7.856C66.9509 7.90764 67.0133 7.93345 67.0875 7.93345C67.1617 7.93345 67.2251 7.90764 67.2778 7.856C67.3286 7.80628 67.3539 7.74508 67.3539 7.67241C67.3539 7.59974 67.3286 7.53759 67.2778 7.48595C66.8679 7.08435 66.3721 6.88354 65.7905 6.88354C65.2107 6.88354 64.7159 7.08435 64.306 7.48595C63.8961 7.88756 63.6912 8.37331 63.6912 8.9432C63.6912 9.51119 63.8961 9.99598 64.306 10.3976Z" fill="#00A4DB"/>
<path d="M64.306 10.3976C64.7159 10.7992 65.2107 11 65.7905 11C66.3721 11 66.8679 10.7992 67.2778 10.3976C67.3286 10.3459 67.3539 10.2838 67.3539 10.2111V8.9432C67.3539 8.87053 67.3286 8.80838 67.2778 8.75674C67.2251 8.70511 67.1617 8.67929 67.0875 8.67929H65.7143C65.6421 8.67929 65.5797 8.70511 65.527 8.75674C65.4742 8.80838 65.4479 8.87053 65.4479 8.9432C65.4479 9.01396 65.4742 9.07516 65.527 9.12679C65.5797 9.17843 65.6421 9.20424 65.7143 9.20424H66.8211V10.0992C66.5127 10.3632 66.1525 10.4884 65.7407 10.475C65.3288 10.4616 64.9765 10.3125 64.6837 10.0275C64.3792 9.72729 64.227 9.36584 64.227 8.9432C64.227 8.51865 64.3792 8.15625 64.6837 7.856C64.9902 7.55767 65.3591 7.4085 65.7905 7.4085C66.2238 7.4085 66.5937 7.55767 66.9001 7.856C66.9509 7.90764 67.0133 7.93345 67.0875 7.93345C67.1617 7.93345 67.2251 7.90764 67.2778 7.856C67.3286 7.80628 67.3539 7.74508 67.3539 7.67241C67.3539 7.59974 67.3286 7.53759 67.2778 7.48595C66.8679 7.08435 66.3721 6.88354 65.7905 6.88354C65.2107 6.88354 64.7159 7.08435 64.306 7.48595C63.8961 7.88756 63.6912 8.37331 63.6912 8.9432C63.6912 9.51119 63.8961 9.99598 64.306 10.3976Z" fill="url(#paint8_linear_0_48)"/>
</g>
<g id="Path_7">
<path d="M68.6057 11C68.6798 11 68.7433 10.9742 68.796 10.9225C68.8487 10.8728 68.875 10.8116 68.875 10.7389V7.14459C68.875 7.07383 68.8487 7.01263 68.796 6.961C68.7433 6.90936 68.6798 6.88354 68.6057 6.88354C68.5315 6.88354 68.469 6.90936 68.4183 6.961C68.3656 7.01263 68.3392 7.07383 68.3392 7.14459V10.7389C68.3392 10.8116 68.3656 10.8728 68.4183 10.9225C68.469 10.9742 68.5315 11 68.6057 11Z" fill="#00A4DB"/>
<path d="M68.6057 11C68.6798 11 68.7433 10.9742 68.796 10.9225C68.8487 10.8728 68.875 10.8116 68.875 10.7389V7.14459C68.875 7.07383 68.8487 7.01263 68.796 6.961C68.7433 6.90936 68.6798 6.88354 68.6057 6.88354C68.5315 6.88354 68.469 6.90936 68.4183 6.961C68.3656 7.01263 68.3392 7.07383 68.3392 7.14459V10.7389C68.3392 10.8116 68.3656 10.8728 68.4183 10.9225C68.469 10.9742 68.5315 11 68.6057 11Z" fill="url(#paint9_linear_0_48)"/>
</g>
<g id="Shape_4">
<path fill-rule="evenodd" clip-rule="evenodd" d="M70.1268 6.88354C70.0526 6.88354 69.9902 6.90936 69.9394 6.961C69.8867 7.01263 69.8604 7.07383 69.8604 7.14459C69.8604 7.21726 69.8867 7.27941 69.9394 7.33105C69.9902 7.38268 70.0526 7.4085 70.1268 7.4085H72.6477C72.7218 7.4085 72.7853 7.38268 72.838 7.33105C72.8907 7.27941 72.917 7.21726 72.917 7.14459C72.917 7.07383 72.8907 7.01263 72.838 6.961C72.7853 6.90936 72.7218 6.88354 72.6477 6.88354H70.1268ZM72.917 10.7389C72.917 10.6663 72.8907 10.6041 72.838 10.5525C72.7853 10.5009 72.7218 10.475 72.6477 10.475H70.1268C70.0526 10.475 69.9902 10.5009 69.9394 10.5525C69.8867 10.6041 69.8604 10.6663 69.8604 10.7389C69.8604 10.8116 69.8867 10.8728 69.9394 10.9225C69.9902 10.9742 70.0526 11 70.1268 11H72.6477C72.7218 11 72.7853 10.9742 72.838 10.9225C72.8907 10.8728 72.917 10.8116 72.917 10.7389ZM69.9394 8.75674C69.9902 8.70511 70.0526 8.67929 70.1268 8.67929H72.6477C72.7218 8.67929 72.7853 8.70511 72.838 8.75674C72.8907 8.80838 72.917 8.87053 72.917 8.9432C72.917 9.01396 72.8907 9.07516 72.838 9.12679C72.7853 9.17843 72.7218 9.20424 72.6477 9.20424H70.1268C70.0526 9.20424 69.9902 9.17843 69.9394 9.12679C69.8867 9.07516 69.8604 9.01396 69.8604 8.9432C69.8604 8.87053 69.8867 8.80838 69.9394 8.75674Z" fill="#00A4DB"/>
<path fill-rule="evenodd" clip-rule="evenodd" d="M70.1268 6.88354C70.0526 6.88354 69.9902 6.90936 69.9394 6.961C69.8867 7.01263 69.8604 7.07383 69.8604 7.14459C69.8604 7.21726 69.8867 7.27941 69.9394 7.33105C69.9902 7.38268 70.0526 7.4085 70.1268 7.4085H72.6477C72.7218 7.4085 72.7853 7.38268 72.838 7.33105C72.8907 7.27941 72.917 7.21726 72.917 7.14459C72.917 7.07383 72.8907 7.01263 72.838 6.961C72.7853 6.90936 72.7218 6.88354 72.6477 6.88354H70.1268ZM72.917 10.7389C72.917 10.6663 72.8907 10.6041 72.838 10.5525C72.7853 10.5009 72.7218 10.475 72.6477 10.475H70.1268C70.0526 10.475 69.9902 10.5009 69.9394 10.5525C69.8867 10.6041 69.8604 10.6663 69.8604 10.7389C69.8604 10.8116 69.8867 10.8728 69.9394 10.9225C69.9902 10.9742 70.0526 11 70.1268 11H72.6477C72.7218 11 72.7853 10.9742 72.838 10.9225C72.8907 10.8728 72.917 10.8116 72.917 10.7389ZM69.9394 8.75674C69.9902 8.70511 70.0526 8.67929 70.1268 8.67929H72.6477C72.7218 8.67929 72.7853 8.70511 72.838 8.75674C72.8907 8.80838 72.917 8.87053 72.917 8.9432C72.917 9.01396 72.8907 9.07516 72.838 9.12679C72.7853 9.17843 72.7218 9.20424 72.6477 9.20424H70.1268C70.0526 9.20424 69.9902 9.17843 69.9394 9.12679C69.8867 9.07516 69.8604 9.01396 69.8604 8.9432C69.8604 8.87053 69.8867 8.80838 69.9394 8.75674Z" fill="url(#paint10_linear_0_48)"/>
</g>
<g id="Path_8">
<path d="M75.0852 10.475C74.9076 10.475 74.7553 10.4129 74.6284 10.2886C74.5016 10.1643 74.4381 10.0151 74.4381 9.84107C74.4381 9.7684 74.4118 9.70625 74.3591 9.65462C74.3064 9.60298 74.2429 9.57716 74.1688 9.57716C74.0946 9.57716 74.0321 9.60298 73.9814 9.65462C73.9287 9.70625 73.9023 9.7684 73.9023 9.84107C73.9023 10.1604 74.0185 10.433 74.2508 10.6586C74.4811 10.8862 74.7592 11 75.0852 11H75.8142C76.1402 11 76.4193 10.8862 76.6516 10.6586C76.8839 10.433 77 10.1604 77 9.84107C77 9.51979 76.8839 9.24632 76.6516 9.02065C76.4193 8.79308 76.1402 8.67929 75.8142 8.67929H75.0852C74.9076 8.67929 74.7553 8.61714 74.6284 8.49283C74.5016 8.36853 74.4381 8.2184 74.4381 8.04246C74.4381 7.86843 74.5016 7.71926 74.6284 7.59496C74.7553 7.47065 74.9076 7.4085 75.0852 7.4085H75.8142C75.9938 7.4085 76.147 7.47065 76.2739 7.59496C76.4008 7.71926 76.4642 7.86843 76.4642 8.04246C76.4642 8.11513 76.4906 8.17728 76.5433 8.22892C76.594 8.28055 76.6565 8.30637 76.7306 8.30637C76.8048 8.30637 76.8682 8.28055 76.921 8.22892C76.9737 8.17728 77 8.11513 77 8.04246C77 7.72309 76.8839 7.45057 76.6516 7.22491C76.4193 6.99733 76.1402 6.88354 75.8142 6.88354H75.0852C74.7592 6.88354 74.4811 6.99733 74.2508 7.22491C74.0185 7.45057 73.9023 7.72309 73.9023 8.04246C73.9023 8.36374 74.0185 8.63722 74.2508 8.86288C74.4811 9.09046 74.7592 9.20424 75.0852 9.20424H75.8142C75.9938 9.20424 76.147 9.2664 76.2739 9.3907C76.4008 9.51501 76.4642 9.66513 76.4642 9.84107C76.4642 10.0151 76.4008 10.1643 76.2739 10.2886C76.147 10.4129 75.9938 10.475 75.8142 10.475H75.0852Z" fill="#00A4DB"/>
<path d="M75.0852 10.475C74.9076 10.475 74.7553 10.4129 74.6284 10.2886C74.5016 10.1643 74.4381 10.0151 74.4381 9.84107C74.4381 9.7684 74.4118 9.70625 74.3591 9.65462C74.3064 9.60298 74.2429 9.57716 74.1688 9.57716C74.0946 9.57716 74.0321 9.60298 73.9814 9.65462C73.9287 9.70625 73.9023 9.7684 73.9023 9.84107C73.9023 10.1604 74.0185 10.433 74.2508 10.6586C74.4811 10.8862 74.7592 11 75.0852 11H75.8142C76.1402 11 76.4193 10.8862 76.6516 10.6586C76.8839 10.433 77 10.1604 77 9.84107C77 9.51979 76.8839 9.24632 76.6516 9.02065C76.4193 8.79308 76.1402 8.67929 75.8142 8.67929H75.0852C74.9076 8.67929 74.7553 8.61714 74.6284 8.49283C74.5016 8.36853 74.4381 8.2184 74.4381 8.04246C74.4381 7.86843 74.5016 7.71926 74.6284 7.59496C74.7553 7.47065 74.9076 7.4085 75.0852 7.4085H75.8142C75.9938 7.4085 76.147 7.47065 76.2739 7.59496C76.4008 7.71926 76.4642 7.86843 76.4642 8.04246C76.4642 8.11513 76.4906 8.17728 76.5433 8.22892C76.594 8.28055 76.6565 8.30637 76.7306 8.30637C76.8048 8.30637 76.8682 8.28055 76.921 8.22892C76.9737 8.17728 77 8.11513 77 8.04246C77 7.72309 76.8839 7.45057 76.6516 7.22491C76.4193 6.99733 76.1402 6.88354 75.8142 6.88354H75.0852C74.7592 6.88354 74.4811 6.99733 74.2508 7.22491C74.0185 7.45057 73.9023 7.72309 73.9023 8.04246C73.9023 8.36374 74.0185 8.63722 74.2508 8.86288C74.4811 9.09046 74.7592 9.20424 75.0852 9.20424H75.8142C75.9938 9.20424 76.147 9.2664 76.2739 9.3907C76.4008 9.51501 76.4642 9.66513 76.4642 9.84107C76.4642 10.0151 76.4008 10.1643 76.2739 10.2886C76.147 10.4129 75.9938 10.475 75.8142 10.475H75.0852Z" fill="url(#paint11_linear_0_48)"/>
</g>
</g>
<g id="ARCHETHIC">
<g id="Path_9">
<path d="M33.1099 5.5222C33.1827 5.41128 33.1921 5.2964 33.1382 5.17756L30.9225 0.217877C30.8579 0.0726258 30.7446 0 30.5829 0C30.4239 0 30.312 0.0726258 30.2473 0.217877L28.0316 5.17756C27.9912 5.26999 27.9899 5.36242 28.0276 5.45485C28.0626 5.54729 28.1273 5.61331 28.2217 5.65292C28.2702 5.67405 28.3201 5.68462 28.3713 5.68462C28.5303 5.68462 28.6422 5.61199 28.7069 5.46674L30.5829 1.26369L32.2366 4.95968H30.0573C29.9549 4.95968 29.8673 4.99533 29.7945 5.06664C29.7244 5.13794 29.6894 5.22377 29.6894 5.32413C29.6894 5.42184 29.7244 5.50635 29.7945 5.57766C29.8673 5.64896 29.9549 5.68462 30.0573 5.68462H32.7986C32.9334 5.68462 33.0371 5.63048 33.1099 5.5222Z" fill="#00A4DB"/>
<path d="M33.1099 5.5222C33.1827 5.41128 33.1921 5.2964 33.1382 5.17756L30.9225 0.217877C30.8579 0.0726258 30.7446 0 30.5829 0C30.4239 0 30.312 0.0726258 30.2473 0.217877L28.0316 5.17756C27.9912 5.26999 27.9899 5.36242 28.0276 5.45485C28.0626 5.54729 28.1273 5.61331 28.2217 5.65292C28.2702 5.67405 28.3201 5.68462 28.3713 5.68462C28.5303 5.68462 28.6422 5.61199 28.7069 5.46674L30.5829 1.26369L32.2366 4.95968H30.0573C29.9549 4.95968 29.8673 4.99533 29.7945 5.06664C29.7244 5.13794 29.6894 5.22377 29.6894 5.32413C29.6894 5.42184 29.7244 5.50635 29.7945 5.57766C29.8673 5.64896 29.9549 5.68462 30.0573 5.68462H32.7986C32.9334 5.68462 33.0371 5.63048 33.1099 5.5222Z" fill="url(#paint12_linear_0_48)"/>
</g>
<g id="Path_10">
<path d="M34.9477 5.68462C35.0501 5.68462 35.1377 5.64896 35.2105 5.57766C35.2833 5.50899 35.3197 5.42448 35.3197 5.32413V3.70787H36.4558L38.2065 5.56973C38.2793 5.64632 38.3696 5.68462 38.4774 5.68462C38.5745 5.68462 38.658 5.65292 38.7281 5.58954C38.8036 5.52088 38.844 5.43637 38.8494 5.33601C38.8521 5.2383 38.8184 5.15247 38.7483 5.07852L37.3979 3.64053C37.8022 3.53225 38.1338 3.31437 38.3925 2.9869C38.6567 2.65414 38.7888 2.27649 38.7888 1.85394C38.7888 1.34424 38.6041 0.907162 38.2348 0.542712C37.8656 0.180904 37.4195 0 36.8965 0H34.9477C34.8453 0 34.759 0.0356526 34.6889 0.106958C34.6162 0.178263 34.5798 0.262773 34.5798 0.360488C34.5798 0.460843 34.6162 0.546674 34.6889 0.617979C34.759 0.689284 34.8453 0.724937 34.9477 0.724937H36.8965C37.2146 0.724937 37.4868 0.834536 37.7133 1.05373C37.937 1.27557 38.0488 1.54231 38.0488 1.85394C38.0488 2.16557 37.937 2.4323 37.7133 2.65414C37.4868 2.87334 37.2146 2.98294 36.8965 2.98294H34.9477C34.8453 2.98294 34.759 3.01859 34.6889 3.0899C34.6162 3.1612 34.5798 3.24703 34.5798 3.34739V5.32413C34.5798 5.42448 34.6162 5.50899 34.6889 5.57766C34.759 5.64896 34.8453 5.68462 34.9477 5.68462Z" fill="#00A4DB"/>
<path d="M34.9477 5.68462C35.0501 5.68462 35.1377 5.64896 35.2105 5.57766C35.2833 5.50899 35.3197 5.42448 35.3197 5.32413V3.70787H36.4558L38.2065 5.56973C38.2793 5.64632 38.3696 5.68462 38.4774 5.68462C38.5745 5.68462 38.658 5.65292 38.7281 5.58954C38.8036 5.52088 38.844 5.43637 38.8494 5.33601C38.8521 5.2383 38.8184 5.15247 38.7483 5.07852L37.3979 3.64053C37.8022 3.53225 38.1338 3.31437 38.3925 2.9869C38.6567 2.65414 38.7888 2.27649 38.7888 1.85394C38.7888 1.34424 38.6041 0.907162 38.2348 0.542712C37.8656 0.180904 37.4195 0 36.8965 0H34.9477C34.8453 0 34.759 0.0356526 34.6889 0.106958C34.6162 0.178263 34.5798 0.262773 34.5798 0.360488C34.5798 0.460843 34.6162 0.546674 34.6889 0.617979C34.759 0.689284 34.8453 0.724937 34.9477 0.724937H36.8965C37.2146 0.724937 37.4868 0.834536 37.7133 1.05373C37.937 1.27557 38.0488 1.54231 38.0488 1.85394C38.0488 2.16557 37.937 2.4323 37.7133 2.65414C37.4868 2.87334 37.2146 2.98294 36.8965 2.98294H34.9477C34.8453 2.98294 34.759 3.01859 34.6889 3.0899C34.6162 3.1612 34.5798 3.24703 34.5798 3.34739V5.32413C34.5798 5.42448 34.6162 5.50899 34.6889 5.57766C34.759 5.64896 34.8453 5.68462 34.9477 5.68462Z" fill="url(#paint13_linear_0_48)"/>
</g>
<g id="Path_11">
<path d="M43.1131 5.68462C43.9163 5.68462 44.601 5.40732 45.167 4.85272C45.2398 4.78141 45.2762 4.69558 45.2762 4.59523C45.2762 4.49487 45.2398 4.41036 45.167 4.3417C45.0943 4.27039 45.0067 4.23474 44.9042 4.23474C44.8018 4.23474 44.7156 4.27039 44.6455 4.3417C44.2223 4.75368 43.7115 4.95968 43.1131 4.95968C42.5174 4.95968 42.008 4.75368 41.5848 4.3417C41.1643 3.92707 40.954 3.42794 40.954 2.84429C40.954 2.258 41.1643 1.75754 41.5848 1.34292C42.008 0.93093 42.5174 0.724937 43.1131 0.724937C43.7115 0.724937 44.2223 0.93093 44.6455 1.34292C44.7156 1.41422 44.8018 1.44987 44.9042 1.44987C45.0067 1.44987 45.0943 1.41422 45.167 1.34292C45.2398 1.27425 45.2762 1.18974 45.2762 1.08939C45.2762 0.989031 45.2398 0.9032 45.167 0.831895C44.601 0.277298 43.9163 0 43.1131 0C42.3125 0 41.6292 0.277298 41.0632 0.831895C40.4971 1.38649 40.2141 2.05729 40.2141 2.84429C40.2141 3.62865 40.4971 4.29812 41.0632 4.85272C41.6292 5.40732 42.3125 5.68462 43.1131 5.68462Z" fill="#00A4DB"/>
<path d="M43.1131 5.68462C43.9163 5.68462 44.601 5.40732 45.167 4.85272C45.2398 4.78141 45.2762 4.69558 45.2762 4.59523C45.2762 4.49487 45.2398 4.41036 45.167 4.3417C45.0943 4.27039 45.0067 4.23474 44.9042 4.23474C44.8018 4.23474 44.7156 4.27039 44.6455 4.3417C44.2223 4.75368 43.7115 4.95968 43.1131 4.95968C42.5174 4.95968 42.008 4.75368 41.5848 4.3417C41.1643 3.92707 40.954 3.42794 40.954 2.84429C40.954 2.258 41.1643 1.75754 41.5848 1.34292C42.008 0.93093 42.5174 0.724937 43.1131 0.724937C43.7115 0.724937 44.2223 0.93093 44.6455 1.34292C44.7156 1.41422 44.8018 1.44987 44.9042 1.44987C45.0067 1.44987 45.0943 1.41422 45.167 1.34292C45.2398 1.27425 45.2762 1.18974 45.2762 1.08939C45.2762 0.989031 45.2398 0.9032 45.167 0.831895C44.601 0.277298 43.9163 0 43.1131 0C42.3125 0 41.6292 0.277298 41.0632 0.831895C40.4971 1.38649 40.2141 2.05729 40.2141 2.84429C40.2141 3.62865 40.4971 4.29812 41.0632 4.85272C41.6292 5.40732 42.3125 5.68462 43.1131 5.68462Z" fill="url(#paint14_linear_0_48)"/>
</g>
<g id="Path_12">
<path d="M47.0048 5.68462C47.1073 5.68462 47.1949 5.64896 47.2676 5.57766C47.3404 5.50899 47.3768 5.42448 47.3768 5.32413V3.20478H50.3284V5.32413C50.3284 5.42448 50.3647 5.50899 50.4375 5.57766C50.5103 5.64896 50.5966 5.68462 50.6963 5.68462C50.7987 5.68462 50.8863 5.64896 50.9591 5.57766C51.0319 5.50899 51.0683 5.42448 51.0683 5.32413V0.360488C51.0683 0.262773 51.0319 0.178263 50.9591 0.106958C50.8863 0.0356526 50.7987 0 50.6963 0C50.5966 0 50.5103 0.0356526 50.4375 0.106958C50.3647 0.178263 50.3284 0.262773 50.3284 0.360488V2.47984H47.3768V0.360488C47.3768 0.262773 47.3404 0.178263 47.2676 0.106958C47.1949 0.0356526 47.1073 0 47.0048 0C46.9024 0 46.8162 0.0356526 46.7461 0.106958C46.6733 0.178263 46.6369 0.262773 46.6369 0.360488V5.32413C46.6369 5.42448 46.6733 5.50899 46.7461 5.57766C46.8162 5.64896 46.9024 5.68462 47.0048 5.68462Z" fill="#00A4DB"/>
<path d="M47.0048 5.68462C47.1073 5.68462 47.1949 5.64896 47.2676 5.57766C47.3404 5.50899 47.3768 5.42448 47.3768 5.32413V3.20478H50.3284V5.32413C50.3284 5.42448 50.3647 5.50899 50.4375 5.57766C50.5103 5.64896 50.5966 5.68462 50.6963 5.68462C50.7987 5.68462 50.8863 5.64896 50.9591 5.57766C51.0319 5.50899 51.0683 5.42448 51.0683 5.32413V0.360488C51.0683 0.262773 51.0319 0.178263 50.9591 0.106958C50.8863 0.0356526 50.7987 0 50.6963 0C50.5966 0 50.5103 0.0356526 50.4375 0.106958C50.3647 0.178263 50.3284 0.262773 50.3284 0.360488V2.47984H47.3768V0.360488C47.3768 0.262773 47.3404 0.178263 47.2676 0.106958C47.1949 0.0356526 47.1073 0 47.0048 0C46.9024 0 46.8162 0.0356526 46.7461 0.106958C46.6733 0.178263 46.6369 0.262773 46.6369 0.360488V5.32413C46.6369 5.42448 46.6733 5.50899 46.7461 5.57766C46.8162 5.64896 46.9024 5.68462 47.0048 5.68462Z" fill="url(#paint15_linear_0_48)"/>
</g>
<g id="Shape_5">
<path fill-rule="evenodd" clip-rule="evenodd" d="M52.7969 0C52.6944 0 52.6082 0.0356526 52.5381 0.106958C52.4653 0.178263 52.4289 0.262773 52.4289 0.360488C52.4289 0.460843 52.4653 0.546674 52.5381 0.617979C52.6082 0.689284 52.6944 0.724937 52.7969 0.724937H56.2781C56.3805 0.724937 56.4681 0.689284 56.5409 0.617979C56.6136 0.546674 56.65 0.460843 56.65 0.360488C56.65 0.262773 56.6136 0.178263 56.5409 0.106958C56.4681 0.0356526 56.3805 0 56.2781 0H52.7969ZM56.65 5.32413C56.65 5.22377 56.6136 5.13794 56.5409 5.06664C56.4681 4.99533 56.3805 4.95968 56.2781 4.95968H52.7969C52.6944 4.95968 52.6082 4.99533 52.5381 5.06664C52.4653 5.13794 52.4289 5.22377 52.4289 5.32413C52.4289 5.42448 52.4653 5.50899 52.5381 5.57766C52.6082 5.64896 52.6944 5.68462 52.7969 5.68462H56.2781C56.3805 5.68462 56.4681 5.64896 56.5409 5.57766C56.6136 5.50899 56.65 5.42448 56.65 5.32413ZM52.5381 2.5868C52.6082 2.51549 52.6944 2.47984 52.7969 2.47984H56.2781C56.3805 2.47984 56.4681 2.51549 56.5409 2.5868C56.6136 2.6581 56.65 2.74393 56.65 2.84429C56.65 2.942 56.6136 3.02651 56.5409 3.09782C56.4681 3.16912 56.3805 3.20478 56.2781 3.20478H52.7969C52.6944 3.20478 52.6082 3.16912 52.5381 3.09782C52.4653 3.02651 52.4289 2.942 52.4289 2.84429C52.4289 2.74393 52.4653 2.6581 52.5381 2.5868Z" fill="#00A4DB"/>
<path fill-rule="evenodd" clip-rule="evenodd" d="M52.7969 0C52.6944 0 52.6082 0.0356526 52.5381 0.106958C52.4653 0.178263 52.4289 0.262773 52.4289 0.360488C52.4289 0.460843 52.4653 0.546674 52.5381 0.617979C52.6082 0.689284 52.6944 0.724937 52.7969 0.724937H56.2781C56.3805 0.724937 56.4681 0.689284 56.5409 0.617979C56.6136 0.546674 56.65 0.460843 56.65 0.360488C56.65 0.262773 56.6136 0.178263 56.5409 0.106958C56.4681 0.0356526 56.3805 0 56.2781 0H52.7969ZM56.65 5.32413C56.65 5.22377 56.6136 5.13794 56.5409 5.06664C56.4681 4.99533 56.3805 4.95968 56.2781 4.95968H52.7969C52.6944 4.95968 52.6082 4.99533 52.5381 5.06664C52.4653 5.13794 52.4289 5.22377 52.4289 5.32413C52.4289 5.42448 52.4653 5.50899 52.5381 5.57766C52.6082 5.64896 52.6944 5.68462 52.7969 5.68462H56.2781C56.3805 5.68462 56.4681 5.64896 56.5409 5.57766C56.6136 5.50899 56.65 5.42448 56.65 5.32413ZM52.5381 2.5868C52.6082 2.51549 52.6944 2.47984 52.7969 2.47984H56.2781C56.3805 2.47984 56.4681 2.51549 56.5409 2.5868C56.6136 2.6581 56.65 2.74393 56.65 2.84429C56.65 2.942 56.6136 3.02651 56.5409 3.09782C56.4681 3.16912 56.3805 3.20478 56.2781 3.20478H52.7969C52.6944 3.20478 52.6082 3.16912 52.5381 3.09782C52.4653 3.02651 52.4289 2.942 52.4289 2.84429C52.4289 2.74393 52.4653 2.6581 52.5381 2.5868Z" fill="url(#paint16_linear_0_48)"/>
</g>
<g id="Path_13">
<path d="M59.9636 0.724937V5.32413C59.9636 5.42448 59.9986 5.50899 60.0687 5.57766C60.1415 5.64896 60.2291 5.68462 60.3315 5.68462C60.4339 5.68462 60.5215 5.64896 60.5943 5.57766C60.6644 5.50899 60.6994 5.42448 60.6994 5.32413V0.724937H62.2844C62.3841 0.724937 62.4704 0.689284 62.5432 0.617979C62.6159 0.546674 62.6523 0.460843 62.6523 0.360488C62.6523 0.262773 62.6159 0.178263 62.5432 0.106958C62.4704 0.0356526 62.3841 0 62.2844 0H58.3786C58.2762 0 58.19 0.0356526 58.1199 0.106958C58.0471 0.178263 58.0107 0.262773 58.0107 0.360488C58.0107 0.460843 58.0471 0.546674 58.1199 0.617979C58.19 0.689284 58.2762 0.724937 58.3786 0.724937H59.9636Z" fill="#00A4DB"/>
<path d="M59.9636 0.724937V5.32413C59.9636 5.42448 59.9986 5.50899 60.0687 5.57766C60.1415 5.64896 60.2291 5.68462 60.3315 5.68462C60.4339 5.68462 60.5215 5.64896 60.5943 5.57766C60.6644 5.50899 60.6994 5.42448 60.6994 5.32413V0.724937H62.2844C62.3841 0.724937 62.4704 0.689284 62.5432 0.617979C62.6159 0.546674 62.6523 0.460843 62.6523 0.360488C62.6523 0.262773 62.6159 0.178263 62.5432 0.106958C62.4704 0.0356526 62.3841 0 62.2844 0H58.3786C58.2762 0 58.19 0.0356526 58.1199 0.106958C58.0471 0.178263 58.0107 0.262773 58.0107 0.360488C58.0107 0.460843 58.0471 0.546674 58.1199 0.617979C58.19 0.689284 58.2762 0.724937 58.3786 0.724937H59.9636Z" fill="url(#paint17_linear_0_48)"/>
</g>
<g id="Path_14">
<path d="M64.3809 5.68462C64.4834 5.68462 64.571 5.64896 64.6437 5.57766C64.7165 5.50899 64.7529 5.42448 64.7529 5.32413V3.20478H67.7045V5.32413C67.7045 5.42448 67.7408 5.50899 67.8136 5.57766C67.8864 5.64896 67.9727 5.68462 68.0724 5.68462C68.1748 5.68462 68.2624 5.64896 68.3352 5.57766C68.408 5.50899 68.4444 5.42448 68.4444 5.32413V0.360488C68.4444 0.262773 68.408 0.178263 68.3352 0.106958C68.2624 0.0356526 68.1748 0 68.0724 0C67.9727 0 67.8864 0.0356526 67.8136 0.106958C67.7408 0.178263 67.7045 0.262773 67.7045 0.360488V2.47984H64.7529V0.360488C64.7529 0.262773 64.7165 0.178263 64.6437 0.106958C64.571 0.0356526 64.4834 0 64.3809 0C64.2785 0 64.1922 0.0356526 64.1222 0.106958C64.0494 0.178263 64.013 0.262773 64.013 0.360488V5.32413C64.013 5.42448 64.0494 5.50899 64.1222 5.57766C64.1922 5.64896 64.2785 5.68462 64.3809 5.68462Z" fill="#00A4DB"/>
<path d="M64.3809 5.68462C64.4834 5.68462 64.571 5.64896 64.6437 5.57766C64.7165 5.50899 64.7529 5.42448 64.7529 5.32413V3.20478H67.7045V5.32413C67.7045 5.42448 67.7408 5.50899 67.8136 5.57766C67.8864 5.64896 67.9727 5.68462 68.0724 5.68462C68.1748 5.68462 68.2624 5.64896 68.3352 5.57766C68.408 5.50899 68.4444 5.42448 68.4444 5.32413V0.360488C68.4444 0.262773 68.408 0.178263 68.3352 0.106958C68.2624 0.0356526 68.1748 0 68.0724 0C67.9727 0 67.8864 0.0356526 67.8136 0.106958C67.7408 0.178263 67.7045 0.262773 67.7045 0.360488V2.47984H64.7529V0.360488C64.7529 0.262773 64.7165 0.178263 64.6437 0.106958C64.571 0.0356526 64.4834 0 64.3809 0C64.2785 0 64.1922 0.0356526 64.1222 0.106958C64.0494 0.178263 64.013 0.262773 64.013 0.360488V5.32413C64.013 5.42448 64.0494 5.50899 64.1222 5.57766C64.1922 5.64896 64.2785 5.68462 64.3809 5.68462Z" fill="url(#paint18_linear_0_48)"/>
</g>
<g id="Path_15">
<path d="M70.173 5.68462C70.2754 5.68462 70.363 5.64896 70.4358 5.57766C70.5086 5.50899 70.545 5.42448 70.545 5.32413V0.360488C70.545 0.262773 70.5086 0.178263 70.4358 0.106958C70.363 0.0356526 70.2754 0 70.173 0C70.0706 0 69.9843 0.0356526 69.9142 0.106958C69.8414 0.178263 69.8051 0.262773 69.8051 0.360488V5.32413C69.8051 5.42448 69.8414 5.50899 69.9142 5.57766C69.9843 5.64896 70.0706 5.68462 70.173 5.68462Z" fill="#00A4DB"/>
<path d="M70.173 5.68462C70.2754 5.68462 70.363 5.64896 70.4358 5.57766C70.5086 5.50899 70.545 5.42448 70.545 5.32413V0.360488C70.545 0.262773 70.5086 0.178263 70.4358 0.106958C70.363 0.0356526 70.2754 0 70.173 0C70.0706 0 69.9843 0.0356526 69.9142 0.106958C69.8414 0.178263 69.8051 0.262773 69.8051 0.360488V5.32413C69.8051 5.42448 69.8414 5.50899 69.9142 5.57766C69.9843 5.64896 70.0706 5.68462 70.173 5.68462Z" fill="url(#paint19_linear_0_48)"/>
</g>
<g id="Path_16">
<path d="M74.8046 5.68462C75.6078 5.68462 76.2925 5.40732 76.8585 4.85272C76.9313 4.78141 76.9677 4.69558 76.9677 4.59523C76.9677 4.49487 76.9313 4.41036 76.8585 4.3417C76.7858 4.27039 76.6982 4.23474 76.5957 4.23474C76.4933 4.23474 76.4071 4.27039 76.337 4.3417C75.9138 4.75368 75.403 4.95968 74.8046 4.95968C74.2089 4.95968 73.6994 4.75368 73.2763 4.3417C72.8558 3.92707 72.6455 3.42794 72.6455 2.84429C72.6455 2.258 72.8558 1.75754 73.2763 1.34292C73.6994 0.93093 74.2089 0.724937 74.8046 0.724937C75.403 0.724937 75.9138 0.93093 76.337 1.34292C76.4071 1.41422 76.4933 1.44987 76.5957 1.44987C76.6982 1.44987 76.7858 1.41422 76.8585 1.34292C76.9313 1.27425 76.9677 1.18974 76.9677 1.08939C76.9677 0.989031 76.9313 0.9032 76.8585 0.831895C76.2925 0.277298 75.6078 0 74.8046 0C74.004 0 73.3207 0.277298 72.7547 0.831895C72.1886 1.38649 71.9056 2.05729 71.9056 2.84429C71.9056 3.62865 72.1886 4.29812 72.7547 4.85272C73.3207 5.40732 74.004 5.68462 74.8046 5.68462Z" fill="#00A4DB"/>
<path d="M74.8046 5.68462C75.6078 5.68462 76.2925 5.40732 76.8585 4.85272C76.9313 4.78141 76.9677 4.69558 76.9677 4.59523C76.9677 4.49487 76.9313 4.41036 76.8585 4.3417C76.7858 4.27039 76.6982 4.23474 76.5957 4.23474C76.4933 4.23474 76.4071 4.27039 76.337 4.3417C75.9138 4.75368 75.403 4.95968 74.8046 4.95968C74.2089 4.95968 73.6994 4.75368 73.2763 4.3417C72.8558 3.92707 72.6455 3.42794 72.6455 2.84429C72.6455 2.258 72.8558 1.75754 73.2763 1.34292C73.6994 0.93093 74.2089 0.724937 74.8046 0.724937C75.403 0.724937 75.9138 0.93093 76.337 1.34292C76.4071 1.41422 76.4933 1.44987 76.5957 1.44987C76.6982 1.44987 76.7858 1.41422 76.8585 1.34292C76.9313 1.27425 76.9677 1.18974 76.9677 1.08939C76.9677 0.989031 76.9313 0.9032 76.8585 0.831895C76.2925 0.277298 75.6078 0 74.8046 0C74.004 0 73.3207 0.277298 72.7547 0.831895C72.1886 1.38649 71.9056 2.05729 71.9056 2.84429C71.9056 3.62865 72.1886 4.29812 72.7547 4.85272C73.3207 5.40732 74.004 5.68462 74.8046 5.68462Z" fill="url(#paint20_linear_0_48)"/>
</g>
</g>
</g>
<g id="Archethic Logo">
<g id="AE">
<g id="AE_2">
<path id="Path_17" fill-rule="evenodd" clip-rule="evenodd" d="M18.7231 11C18.9787 11 19.1756 10.8952 19.3136 10.6857C19.4516 10.4711 19.4695 10.2488 19.3673 10.0188L15.1651 0.421603C15.0424 0.140534 14.8277 0 14.521 0C14.2193 0 14.0072 0.140534 13.8845 0.421603L9.68233 10.0188C9.60565 10.1977 9.60309 10.3765 9.67466 10.5554C9.74112 10.7343 9.86381 10.862 10.0427 10.9387C10.1348 10.9796 10.2293 11 10.3265 11C10.6281 11 10.8402 10.8595 10.9629 10.5784L14.521 2.4453L17.6573 9.59721H13.5241C13.3298 9.59721 13.1637 9.6662 13.0257 9.80418C12.8927 9.94216 12.8263 10.1082 12.8263 10.3024C12.8263 10.4915 12.8927 10.6551 13.0257 10.793C13.1637 10.931 13.3298 11 13.5241 11H18.7231Z" fill="url(#paint21_linear_0_48)"/>
<path id="Path_18" fill-rule="evenodd" clip-rule="evenodd" d="M26.1355 1.30508C26.3736 1.30508 26.5772 1.2409 26.7463 1.11253C26.9154 0.984162 27 0.829644 27 0.648977C27 0.473063 26.9154 0.320922 26.7463 0.192553C26.5772 0.0641845 26.3736 0 26.1355 0H18.0454C17.8073 0 17.6069 0.0641845 17.444 0.192553C17.2749 0.320922 17.1903 0.473063 17.1903 0.648977C17.1903 0.829644 17.2749 0.984162 17.444 1.11253C17.6069 1.2409 17.8073 1.30508 18.0454 1.30508H26.1355Z" fill="url(#paint22_linear_0_48)"/>
<path id="Path_19" fill-rule="evenodd" clip-rule="evenodd" d="M26.2232 6.2458C26.4114 6.2458 26.5723 6.17244 26.706 6.02574C26.8397 5.87903 26.9066 5.70515 26.9066 5.50411C26.9066 5.29763 26.8397 5.12104 26.706 4.97433C26.5723 4.82763 26.4114 4.75427 26.2232 4.75427H19.8282C19.64 4.75427 19.4815 4.82763 19.3528 4.97433C19.2191 5.12104 19.1523 5.29763 19.1523 5.50411C19.1523 5.70515 19.2191 5.87903 19.3528 6.02574C19.4815 6.17244 19.64 6.2458 19.8282 6.2458H26.2232Z" fill="url(#paint23_linear_0_48)"/>
<path id="Path_20" fill-rule="evenodd" clip-rule="evenodd" d="M26.4044 11C26.5427 11 26.6609 10.9358 26.7592 10.8075C26.8574 10.6839 26.9066 10.5317 26.9066 10.3511C26.9066 10.1704 26.8574 10.0159 26.7592 9.8875C26.6609 9.75913 26.5427 9.69495 26.4044 9.69495H21.7044C21.5661 9.69495 21.4496 9.75913 21.355 9.8875C21.2567 10.0159 21.2076 10.1704 21.2076 10.3511C21.2076 10.5317 21.2567 10.6839 21.355 10.8075C21.4496 10.9358 21.5661 11 21.7044 11H26.4044Z" fill="url(#paint24_linear_0_48)"/>
</g>
</g>
<g id="Logo">
<path id="Path_21" d="M2.83048 1.52865C2.94706 1.5049 3.3081 1.43583 3.76816 1.44055C4.52254 1.44829 5.10694 1.64961 5.46503 1.77622C5.87891 1.92254 6.7961 2.29419 7.72372 3.12923C8.0738 3.44435 8.33481 3.74398 8.51228 3.96629C8.59506 3.79565 8.66622 3.6206 8.72403 3.44527C8.80003 3.21478 8.85605 2.97652 8.89054 2.73716L8.94509 2.35865C8.72414 2.13818 8.42713 1.86616 8.05341 1.5858C7.87563 1.45243 7.30989 1.03914 6.58613 0.705846C6.01224 0.441555 4.67701 -0.173341 2.95989 0.0466639C1.68545 0.209949 0.789596 0.757699 0.582721 0.888571C0.431857 0.984 0.285541 1.08663 0.147785 1.19365L0.0530131 1.26727L0.0389194 1.3892C0.0184686 1.56601 0.00591903 1.74878 0.00159348 1.93233C-0.0124999 2.53645 0.0602912 3.47029 0.487155 4.48827C0.610365 4.78217 0.758105 5.07112 0.926281 5.3471C0.972872 5.42355 1.06628 5.57045 1.2049 5.75943C1.1906 5.65248 1.17815 5.54544 1.16779 5.43988C1.10713 4.82247 1.10755 4.19191 1.16896 3.56579C1.21978 3.04774 1.30427 2.63166 1.3649 2.36898C1.39246 2.24961 1.418 2.14971 1.43725 2.07705C1.60168 1.97667 1.81008 1.86429 2.05976 1.76229C2.2131 1.69964 2.48207 1.59964 2.83048 1.52865Z" fill="url(#paint25_linear_0_48)"/>
<path id="Path_22" d="M6.86167 8.85384C6.39664 9.06669 6.00097 9.19851 5.74747 9.2752C5.63228 9.31006 5.53461 9.337 5.46324 9.35599C5.29466 9.25875 5.09359 9.1281 4.88036 8.95531C4.7494 8.84918 4.52807 8.65808 4.29101 8.38136C4.21169 8.28876 3.96986 7.99978 3.7403 7.58527C3.36391 6.90558 3.23795 6.28163 3.1635 5.89769C3.07747 5.45393 2.92696 4.44687 3.16404 3.19936C3.25352 2.72858 3.37506 2.34531 3.47345 2.07544C3.28675 2.08638 3.10221 2.10995 2.9242 2.1456C2.69021 2.19247 2.45976 2.26112 2.23931 2.3496L1.89069 2.4895C1.81593 2.79742 1.73606 3.19918 1.68808 3.6738C1.66525 3.8996 1.60204 4.61255 1.68687 5.42717C1.75412 6.07312 1.91059 7.57598 2.96881 9.00457C3.75421 10.0649 4.6734 10.5942 4.88938 10.7143C5.04687 10.8019 5.20818 10.8818 5.36883 10.9518L5.47936 11L5.58989 10.9518C5.75018 10.8819 5.91152 10.802 6.06934 10.7143C6.5887 10.4257 7.34351 9.89469 7.98992 9.00455C8.17655 8.74759 8.34654 8.47112 8.49516 8.18281C8.53632 8.10294 8.61346 7.94598 8.70332 7.72755C8.6199 7.7937 8.53546 7.85826 8.45121 7.92017C7.95853 8.28245 7.42371 8.59657 6.86167 8.85384Z" fill="url(#paint26_linear_0_48)"/>
<path id="Path_23" d="M11.0228 1.91788C11.0185 1.73544 11.0059 1.55346 10.9853 1.37697L10.9711 1.25555L10.8758 1.18223C10.7375 1.07591 10.5903 0.973678 10.4382 0.878406C9.93778 0.564994 9.1166 0.165094 8.04664 0.0400202C7.73775 0.00387702 7.42067 -0.00786804 7.10423 0.00512342C7.01655 0.00873381 6.84615 0.0191278 6.61765 0.0489966C6.71469 0.089467 6.81089 0.131626 6.90478 0.174938C7.45401 0.428108 7.98354 0.742444 8.47869 1.10915C8.88837 1.41255 9.19543 1.6953 9.38562 1.88032C9.47204 1.9644 9.54314 2.03699 9.59448 2.09039C9.5961 2.28744 9.58569 2.52977 9.5458 2.80387C9.5213 2.97222 9.47001 3.26257 9.35439 3.60953C9.3157 3.72564 9.19212 4.08292 8.95673 4.49205C8.57076 5.16292 8.10767 5.58533 7.82117 5.84257C7.49005 6.13989 6.71643 6.77517 5.54826 7.18902C5.10741 7.3452 4.72439 7.42947 4.44836 7.47751C4.55007 7.63651 4.66135 7.78731 4.77955 7.92632C4.93498 8.10905 5.10697 8.2778 5.29071 8.42783L5.58128 8.66509C5.87767 8.57726 6.25559 8.44705 6.67911 8.25242C6.8806 8.15981 7.5124 7.8596 8.15649 7.37825C8.66721 6.99656 9.85545 6.10853 10.5344 4.4632C11.0383 3.24206 11.0287 2.16808 11.0228 1.91788Z" fill="url(#paint27_linear_0_48)"/>
</g>
</g>
</g>
<defs>
<linearGradient id="paint0_linear_0_48" x1="28" y1="6.88354" x2="28" y2="11" gradientUnits="userSpaceOnUse">
<stop stop-color="#00A4DB"/>
<stop offset="1" stop-color="#CC00FF"/>
</linearGradient>
<linearGradient id="paint1_linear_0_48" x1="32.3465" y1="6.88354" x2="32.3465" y2="11" gradientUnits="userSpaceOnUse">
<stop stop-color="#00A4DB"/>
<stop offset="1" stop-color="#CC00FF"/>
</linearGradient>
<linearGradient id="paint2_linear_0_48" x1="36.3885" y1="6.88354" x2="36.3885" y2="11" gradientUnits="userSpaceOnUse">
<stop stop-color="#00A4DB"/>
<stop offset="1" stop-color="#CC00FF"/>
</linearGradient>
<linearGradient id="paint3_linear_0_48" x1="41.0394" y1="6.88354" x2="41.0394" y2="11" gradientUnits="userSpaceOnUse">
<stop stop-color="#00A4DB"/>
<stop offset="1" stop-color="#CC00FF"/>
</linearGradient>
<linearGradient id="paint4_linear_0_48" x1="45.2337" y1="6.88062" x2="45.2337" y2="11" gradientUnits="userSpaceOnUse">
<stop stop-color="#00A4DB"/>
<stop offset="1" stop-color="#CC00FF"/>
</linearGradient>
<linearGradient id="paint5_linear_0_48" x1="49.5802" y1="6.88354" x2="49.5802" y2="11" gradientUnits="userSpaceOnUse">
<stop stop-color="#00A4DB"/>
<stop offset="1" stop-color="#CC00FF"/>
</linearGradient>
<linearGradient id="paint6_linear_0_48" x1="54.7669" y1="6.88354" x2="54.7669" y2="11" gradientUnits="userSpaceOnUse">
<stop stop-color="#00A4DB"/>
<stop offset="1" stop-color="#CC00FF"/>
</linearGradient>
<linearGradient id="paint7_linear_0_48" x1="58.5044" y1="6.88354" x2="58.5044" y2="11" gradientUnits="userSpaceOnUse">
<stop stop-color="#00A4DB"/>
<stop offset="1" stop-color="#CC00FF"/>
</linearGradient>
<linearGradient id="paint8_linear_0_48" x1="63.6912" y1="6.88354" x2="63.6912" y2="11" gradientUnits="userSpaceOnUse">
<stop stop-color="#00A4DB"/>
<stop offset="1" stop-color="#CC00FF"/>
</linearGradient>
<linearGradient id="paint9_linear_0_48" x1="68.3392" y1="6.88354" x2="68.3392" y2="11" gradientUnits="userSpaceOnUse">
<stop stop-color="#00A4DB"/>
<stop offset="1" stop-color="#CC00FF"/>
</linearGradient>
<linearGradient id="paint10_linear_0_48" x1="69.8604" y1="6.88354" x2="69.8604" y2="11" gradientUnits="userSpaceOnUse">
<stop stop-color="#00A4DB"/>
<stop offset="1" stop-color="#CC00FF"/>
</linearGradient>
<linearGradient id="paint11_linear_0_48" x1="73.9023" y1="6.88354" x2="73.9023" y2="11" gradientUnits="userSpaceOnUse">
<stop stop-color="#00A4DB"/>
<stop offset="1" stop-color="#CC00FF"/>
</linearGradient>
<linearGradient id="paint12_linear_0_48" x1="28.0003" y1="0" x2="28.0003" y2="5.68462" gradientUnits="userSpaceOnUse">
<stop stop-color="#00A4DB"/>
<stop offset="1" stop-color="#CC00FF"/>
</linearGradient>
<linearGradient id="paint13_linear_0_48" x1="34.5798" y1="0" x2="34.5798" y2="5.68462" gradientUnits="userSpaceOnUse">
<stop stop-color="#00A4DB"/>
<stop offset="1" stop-color="#CC00FF"/>
</linearGradient>
<linearGradient id="paint14_linear_0_48" x1="40.2141" y1="0" x2="40.2141" y2="5.68462" gradientUnits="userSpaceOnUse">
<stop stop-color="#00A4DB"/>
<stop offset="1" stop-color="#CC00FF"/>
</linearGradient>
<linearGradient id="paint15_linear_0_48" x1="46.6369" y1="0" x2="46.6369" y2="5.68462" gradientUnits="userSpaceOnUse">
<stop stop-color="#00A4DB"/>
<stop offset="1" stop-color="#CC00FF"/>
</linearGradient>
<linearGradient id="paint16_linear_0_48" x1="52.4289" y1="0" x2="52.4289" y2="5.68462" gradientUnits="userSpaceOnUse">
<stop stop-color="#00A4DB"/>
<stop offset="1" stop-color="#CC00FF"/>
</linearGradient>
<linearGradient id="paint17_linear_0_48" x1="58.0107" y1="0" x2="58.0107" y2="5.68462" gradientUnits="userSpaceOnUse">
<stop stop-color="#00A4DB"/>
<stop offset="1" stop-color="#CC00FF"/>
</linearGradient>
<linearGradient id="paint18_linear_0_48" x1="64.013" y1="0" x2="64.013" y2="5.68462" gradientUnits="userSpaceOnUse">
<stop stop-color="#00A4DB"/>
<stop offset="1" stop-color="#CC00FF"/>
</linearGradient>
<linearGradient id="paint19_linear_0_48" x1="69.8051" y1="0" x2="69.8051" y2="5.68462" gradientUnits="userSpaceOnUse">
<stop stop-color="#00A4DB"/>
<stop offset="1" stop-color="#CC00FF"/>
</linearGradient>
<linearGradient id="paint20_linear_0_48" x1="71.9056" y1="0" x2="71.9056" y2="5.68462" gradientUnits="userSpaceOnUse">
<stop stop-color="#00A4DB"/>
<stop offset="1" stop-color="#CC00FF"/>
</linearGradient>
<linearGradient id="paint21_linear_0_48" x1="11.3218" y1="11.8166" x2="19.1171" y2="7.04592" gradientUnits="userSpaceOnUse">
<stop stop-color="#00A4DB"/>
<stop offset="1" stop-color="#CC00FF"/>
</linearGradient>
<linearGradient id="paint22_linear_0_48" x1="18.8893" y1="1.40197" x2="19.2774" y2="-0.600051" gradientUnits="userSpaceOnUse">
<stop stop-color="#00A4DB"/>
<stop offset="1" stop-color="#CC00FF"/>
</linearGradient>
<linearGradient id="paint23_linear_0_48" x1="20.4953" y1="6.35652" x2="21.1122" y2="4.15543" gradientUnits="userSpaceOnUse">
<stop stop-color="#00A4DB"/>
<stop offset="1" stop-color="#CC00FF"/>
</linearGradient>
<linearGradient id="paint24_linear_0_48" x1="22.1946" y1="11.0969" x2="22.8184" y2="9.22779" gradientUnits="userSpaceOnUse">
<stop stop-color="#00A4DB"/>
<stop offset="1" stop-color="#CC00FF"/>
</linearGradient>
<linearGradient id="paint25_linear_0_48" x1="1.54924" y1="6.18698" x2="6.1235" y2="1.31163" gradientUnits="userSpaceOnUse">
<stop stop-color="#00A4DB"/>
<stop offset="1" stop-color="#CC00FF"/>
</linearGradient>
<linearGradient id="paint26_linear_0_48" x1="2.8666" y1="11.6625" x2="8.82243" y2="8.42948" gradientUnits="userSpaceOnUse">
<stop stop-color="#00A4DB"/>
<stop offset="1" stop-color="#CC00FF"/>
</linearGradient>
<linearGradient id="paint27_linear_0_48" x1="5.58727" y1="9.30833" x2="11.2375" y2="6.36578" gradientUnits="userSpaceOnUse">
<stop stop-color="#00A4DB"/>
<stop offset="1" stop-color="#CC00FF"/>
</linearGradient>
</defs>
</svg>
